<svg xmlns="http://www.w3.org/2000/svg" viewBox="0 0 29 36">
    <path fill="#C6191B" fill-rule="nonzero" stroke="#C6191B" stroke-width=".5" d="M14.5 1c2.432 0 4.402 2.018 4.402 4.508v1.46c0 4.636 2.222 7.512 4.402 8.027a3.872 3.872 0 0 1 2.893.944C27.371 16.97 28 18.773 28 21.306v7.984c0 .258-.168.43-.42.43-.25 0-.419-.172-.419-.43v-7.984c0-2.233-.503-3.821-1.509-4.723a2.96 2.96 0 0 0-1.97-.772v17.386c0 .987-.797 1.803-1.761 1.803H7.079c-.964 0-1.76-.816-1.76-1.803V15.811a2.96 2.96 0 0 0-1.971.772c-1.006.902-1.51 2.49-1.51 4.723v7.941c0 .258-.167.43-.419.43-.251 0-.419-.172-.419-.43v-7.984c0-2.49.587-4.293 1.803-5.367a3.872 3.872 0 0 1 2.893-.944c2.18-.515 4.402-3.391 4.402-7.985v-1.46C10.098 3.018 12.068 1 14.5 1zm3.606 6.31h-7.17c-.125 3.65-1.76 7.513-4.78 8.415v17.429c0 .515.42.944.923.944h14.884c.503 0 .922-.429.922-.944v-17.43c-3.06-.858-4.654-4.764-4.78-8.413zm1.593 15.541c.251 0 .419.172.419.43v6.439c0 .73-.587 1.373-1.342 1.373h-8.51c-.755 0-1.384-.644-1.384-1.373v-6.44c0-.257.168-.429.42-.429zm-.461 2.92H9.762v3.906c0 .257.21.515.504.515h8.468a.516.516 0 0 0 .504-.515V25.77zm0-2.104H9.72v1.245h9.518v-1.245zM14.5 1.816c-1.97 0-3.564 1.631-3.564 3.649v.987h7.128v-.987c0-2.018-1.594-3.65-3.564-3.65z"/>
</svg>
