<svg xmlns="http://www.w3.org/2000/svg" viewBox="0 0 55 60">
    <path fill="#C6191B" fill-rule="nonzero" d="M10.038 7.063c9.415-9.417 24.738-9.417 34.153 0 8.18 8.18 9.25 20.813 3.217 30.163l7.023 11.733a.749.749 0 0 1-.62 1.135l-10.877.328-4.883 9.092a.75.75 0 0 1-.643.396h-.017a.751.751 0 0 1-.644-.365l-6.845-11.434a24.36 24.36 0 0 1-2.788.167c-.844 0-1.687-.048-2.527-.136L17.79 59.495a.752.752 0 0 1-.643.365h-.018a.75.75 0 0 1-.642-.395l-4.883-9.094-10.877-.327a.75.75 0 0 1-.62-1.135l6.857-11.456c-6.196-9.371-5.172-22.145 3.074-30.39zM46.47 38.578a24.23 24.23 0 0 1-2.28 2.638 24.005 24.005 0 0 1-12.682 6.658l5.848 9.767 4.462-8.31a.75.75 0 0 1 .638-.395l10.032-.303zm-38.553.204l-5.868 9.801 10.033.302a.749.749 0 0 1 .638.395l4.462 8.311 5.792-9.674a24.005 24.005 0 0 1-15.057-9.135zM27.114 1.499c-5.8 0-11.6 2.208-16.016 6.624-8.831 8.832-8.831 23.2 0 32.033 8.831 8.83 23.202 8.83 32.033 0 8.83-8.832 8.83-23.201 0-32.033-4.416-4.416-10.217-6.624-16.017-6.624zm0 3.394c5.141 0 9.974 2.001 13.61 5.637 7.504 7.504 7.504 19.715 0 27.218a19.185 19.185 0 0 1-13.61 5.628 19.185 19.185 0 0 1-13.609-5.628A19.117 19.117 0 0 1 7.868 24.14c0-5.14 2.001-9.974 5.637-13.609a19.117 19.117 0 0 1 13.61-5.637zm.237 22.53c-5.959 0-10.811 4.85-10.93 10.855 6.463 4.893 15.526 4.788 21.86-.347-.11-5.908-4.867-10.508-10.93-10.508zm-.237-21.031c-4.74 0-9.197 1.846-12.549 5.198a17.628 17.628 0 0 0-5.198 12.55c0 4.74 1.846 9.196 5.198 12.548.139.138.29.256.43.389.572-5.096 4.165-9.27 8.92-10.655-2.606-1.277-4.408-3.948-4.408-7.04 0-4.326 3.518-7.844 7.844-7.844 4.325 0 7.843 3.518 7.843 7.844 0 3.074-1.781 5.733-4.363 7.018 4.762 1.317 8.274 5.281 8.864 10.254 6.886-6.923 6.877-18.155-.032-25.064a17.628 17.628 0 0 0-12.549-5.198zm.237 6.645a6.352 6.352 0 0 0-6.345 6.345 6.352 6.352 0 0 0 6.345 6.344 6.351 6.351 0 0 0 6.344-6.344 6.352 6.352 0 0 0-6.344-6.345z"/>
</svg>
