<svg xmlns="http://www.w3.org/2000/svg" width="56" height="56" viewBox="0 0 56 56">
    <path fill="#001832" d="M41.167 0c2.165 0 4.133 1.177 5.168 3.043.653-.13 1.32-.15 1.992-.055 2.623.367 4.74 2.543 5.034 5.174.307 2.754-1.28 5.285-3.824 6.217v3.869c1.33 1.736 2.063 3.86 2.063 6.05 0 3.482-1.796 6.63-4.644 8.427v3.763c5.579.416 9.018 5.79 9.018 14.261V55.3c0 .387-.313.7-.7.7h-27.14c-.052 0-.098-.019-.147-.03-.05.011-.095.03-.147.03H.7c-.387 0-.7-.313-.7-.7v-4.548c0-3.88.858-7.426 2.417-9.985.93-1.526 2.071-2.65 3.371-3.373-2.887-.838-4.325-2.558-4.406-2.657-.132-.162-.186-.376-.143-.581.042-.206.174-.382.359-.48 1.78-.94 2.871-4.524 3.196-6.053-.37-1.048-.575-2.168-.575-3.326 0-2.321.82-4.573 2.307-6.362v-4.719c-2.255-.52-3.876-2.529-3.862-4.905.014-2.243 1.561-4.221 3.763-4.808.645-.173 1.304-.21 1.965-.11C9.358 1.34 11.434 0 13.734 0c2.165 0 4.133 1.176 5.168 3.042.652-.13 1.32-.15 1.992-.054 2.623.366 4.74 2.542 5.034 5.174.307 2.753-1.28 5.284-3.824 6.216v3.869c1.33 1.736 2.064 3.86 2.064 6.05 0 1.093-.18 2.154-.51 3.15.274 1.414 1.382 5.253 3.232 6.229.186.098.317.274.36.48.042.205-.011.419-.143.581-.08.1-1.504 1.803-4.362 2.645 2.6 1.362 4.427 4.177 5.268 8.098.41-1.776 1.027-3.38 1.838-4.712 1.625-2.669 3.884-4.133 6.547-4.29v-3.692c-2.91-1.786-4.746-4.967-4.746-8.489 0-2.32.821-4.572 2.307-6.361v-4.72c-2.255-.52-3.877-2.528-3.862-4.904.014-2.244 1.56-4.222 3.763-4.809.646-.173 1.304-.21 1.965-.11.966-2.052 3.042-3.392 5.342-3.392zm5.266 37.858l-.26.158c-1.152.698-2.423 1.088-3.714 1.205v15.38h12.116v-3.852c0-6.175-2.148-12.76-8.142-12.89zm-9.537-.016c-.009 0-.016.004-.024.004l-.295.007c-2.805.125-4.55 2.033-5.53 3.643-1.428 2.342-2.214 5.63-2.214 9.257v3.848H41.06V39.232c-1.33-.095-2.645-.48-3.836-1.194zM19 37.858l-.26.158c-1.151.698-2.423 1.088-3.713 1.205v15.38h12.116v-3.852c0-6.175-2.148-12.76-8.143-12.89zm-9.536-.016c-.008 0-.016.004-.024.004-2.978 0-4.812 1.985-5.826 3.65-1.427 2.342-2.213 5.63-2.213 9.257v3.848h12.227V39.232c-1.33-.095-2.645-.48-3.835-1.194zm37.073 10.874c.387 0 .7.313.7.7 0 .387-.313.7-.7.7h-1.36c-.387 0-.7-.313-.7-.7 0-.387.313-.7.7-.7zm-8.304 0c.387 0 .7.313.7.7 0 .387-.313.7-.7.7h-1.36c-.387 0-.7-.313-.7-.7 0-.387.313-.7.7-.7zm-19.129 0c.386 0 .7.313.7.7 0 .387-.313.7-.7.7h-1.36c-.387 0-.7-.313-.7-.7 0-.387.313-.7.7-.7zm-8.304 0c.387 0 .7.313.7.7 0 .387-.313.7-.7.7h-1.36c-.387 0-.7-.313-.7-.7 0-.387.313-.7.7-.7zm35.737-3.479c.387 0 .7.313.7.7 0 .387-.313.7-.7.7h-1.36c-.387 0-.7-.313-.7-.7 0-.387.313-.7.7-.7zm-8.304 0c.387 0 .7.313.7.7 0 .387-.313.7-.7.7h-1.36c-.387 0-.7-.313-.7-.7 0-.387.313-.7.7-.7zm-19.129 0c.386 0 .7.313.7.7 0 .387-.313.7-.7.7h-1.36c-.387 0-.7-.313-.7-.7 0-.387.313-.7.7-.7zm-8.304 0c.387 0 .7.313.7.7 0 .387-.313.7-.7.7h-1.36c-.387 0-.7-.313-.7-.7 0-.387.313-.7.7-.7zm27.433-3.479c.387 0 .7.313.7.7 0 .387-.313.7-.7.7h-1.36c-.387 0-.7-.313-.7-.7 0-.387.313-.7.7-.7zm8.304 0c.387 0 .7.313.7.7 0 .387-.313.7-.7.7h-1.36c-.387 0-.7-.313-.7-.7 0-.387.313-.7.7-.7zm-27.433 0c.386 0 .7.313.7.7 0 .387-.313.7-.7.7h-1.36c-.387 0-.7-.313-.7-.7 0-.387.313-.7.7-.7zm-8.304 0c.387 0 .7.313.7.7 0 .387-.313.7-.7.7h-1.36c-.387 0-.7-.313-.7-.7 0-.387.313-.7.7-.7zm34.758-8.3c-.265.114-.535.22-.812.31-1.137.302-2.21.403-3.134.403-1.786 0-3.017-.376-3.094-.4-.245-.081-.484-.172-.72-.27v3.25l.147.087c2.318 1.389 5.193 1.382 7.504-.02l.109-.066zm-27.434 0c-.265.113-.534.218-.811.31-1.138.3-2.21.402-3.135.402-1.785 0-3.017-.376-3.094-.4-.244-.08-.484-.17-.719-.269v3.249l.147.088c2.317 1.389 5.193 1.382 7.503-.02l.109-.066zm4.61-4.005c-.794 1.314-1.889 2.438-3.21 3.271v3.706c3.087-.03 5.067-1.295 5.95-2.046-1.394-1.211-2.266-3.389-2.74-4.931zm-17.011.109c-.481 1.535-1.345 3.641-2.71 4.825.88.752 2.835 2.016 5.954 2.043v-3.644c-1.331-.816-2.436-1.925-3.244-3.224zm43.162-9.806c-5.246 3.395-13.78 4.688-15.816 4.956.17 3.536 2.484 6.61 5.877 7.727.015.003 2.512.757 5.402-.012 3.486-1.148 5.854-4.42 5.854-8.129 0-1.613-.466-3.185-1.317-4.542zm-33.49 1.514c-3.914 2.217-8.397 3.17-9.76 3.422.162 3.544 2.479 6.627 5.878 7.746.015.003 2.513.758 5.403-.012 3.207-1.056 5.462-3.911 5.804-7.248-3.441-.165-6.303-2.826-7.325-3.908zm5.506-2.294h-2.3c-.61.565-1.278 1.077-1.98 1.544 1.038 1.042 3.431 3.11 6.125 3.259-.107-1.747-.75-3.424-1.845-4.803zm26.579 0H34.92c-.992 1.25-1.614 2.744-1.801 4.315 2.2-.31 9.556-1.517 14.36-4.315zm-31.092 0h-8.9c-.984 1.24-1.603 2.72-1.797 4.277 1.832-.37 6.992-1.597 10.697-4.277zM41.167 1.4c-1.914 0-3.624 1.217-4.255 3.029-.122.348-.489.542-.848.444-.622-.173-1.242-.178-1.843-.018-1.595.425-2.715 1.85-2.725 3.465-.011 1.868 1.38 3.42 3.234 3.61.357.036.628.337.628.696v4.951h12.78v-3.71c0-.317.211-.594.518-.676 2.17-.582 3.564-2.63 3.313-4.873-.224-2.006-1.837-3.665-3.836-3.944-.67-.093-1.335-.042-1.971.154-.012.004-.025.002-.037.004l-.033.014c-.06.012-1.424.305-2.221 1.654-.131.22-.364.344-.604.344-.12 0-.243-.031-.355-.097-.333-.197-.443-.626-.247-.959.662-1.12 1.603-1.714 2.287-2.02-.821-1.274-2.235-2.068-3.785-2.068zm-27.433 0c-1.914 0-3.625 1.217-4.256 3.029-.12.348-.488.542-.848.444-.62-.173-1.24-.178-1.842-.018-1.595.425-2.715 1.85-2.725 3.465-.01 1.868 1.38 3.42 3.234 3.61.357.036.628.337.628.696v4.951h12.779v-3.71c0-.317.212-.594.518-.676 2.17-.582 3.564-2.63 3.313-4.873-.223-2.006-1.836-3.665-3.835-3.944-.67-.093-1.335-.042-1.971.154-.012.004-.025.002-.037.004-.012.004-.021.012-.033.014-.061.012-1.424.305-2.222 1.654-.13.22-.364.344-.603.344-.12 0-.243-.031-.355-.097-.333-.197-.443-.626-.247-.959.662-1.12 1.603-1.714 2.287-2.02-.821-1.274-2.235-2.068-3.785-2.068z"/>
</svg>
