<svg xmlns="http://www.w3.org/2000/svg" viewBox="0 0 32 32">
    <path fill="#C6191B" fill-rule="nonzero" stroke="#C6191B" stroke-width=".5" d="M16 8.032a2.281 2.281 0 0 1 2.279 2.278 2.28 2.28 0 0 1-1.49 2.136c7.541.41 13.551 6.675 13.551 14.317v.754h.285c.207 0 .375.168.375.375v2.733a.375.375 0 0 1-.375.375H1.375A.375.375 0 0 1 1 30.625v-2.733c0-.207.168-.375.375-.375h.284v-.754c0-7.642 6.01-13.906 13.552-14.317a2.28 2.28 0 0 1-1.49-2.136A2.282 2.282 0 0 1 16 8.032zm14.25 20.235H1.75v1.983h28.5v-1.983zM16 13.173c-7.494 0-13.59 6.097-13.59 13.59v.754h27.18v-.754c0-7.493-6.096-13.59-13.59-13.59zm-3.235 1.874a.375.375 0 0 1 .197.724c-4.017 1.095-7.094 4.448-7.839 8.542a.375.375 0 0 1-.738-.135c.796-4.376 4.086-7.96 8.38-9.131zM16 8.782a1.53 1.53 0 0 0-1.529 1.528A1.53 1.53 0 0 0 16 11.84a1.53 1.53 0 0 0 1.529-1.53 1.53 1.53 0 0 0-1.53-1.528zM14.565 1c.875 0 1.586.711 1.586 1.586 0 .875-.711 1.586-1.586 1.586a.836.836 0 0 0 0 1.671.375.375 0 1 1 0 .75 1.587 1.587 0 0 1-1.585-1.586c0-.874.711-1.585 1.585-1.585a.837.837 0 0 0 0-1.672.375.375 0 1 1 0-.75zm3.527 0c.874 0 1.585.711 1.585 1.586 0 .875-.711 1.586-1.585 1.586a.836.836 0 0 0 0 1.671.375.375 0 1 1 0 .75 1.587 1.587 0 0 1-1.586-1.586c0-.874.711-1.585 1.586-1.585a.837.837 0 0 0 0-1.672.375.375 0 1 1 0-.75z"/>
</svg>
