<svg xmlns="http://www.w3.org/2000/svg"  viewBox="0 0 44 24">
    <path fill="#001832" fill-rule="nonzero" d="M38.77 9.897c-.53-1.432-1.787-2.536-3.362-2.95l-5.39-1.419c.018-.409-.061-.83-.251-1.306-.604-1.513-1.93-2.634-3.506-3.07-.02-.006-.042-.009-.062-.014A5.387 5.387 0 0 0 25.542 1c-.104-.014-.211-.015-.317-.023-.137-.011-.273-.031-.412-.031H19.186c-.146 0-.288.02-.432.032-.099.008-.199.008-.296.022-.222.03-.439.08-.653.136-.022.006-.045.009-.066.015-1.575.436-2.901 1.557-3.506 3.07-.19.475-.268.897-.252 1.306l-5.39 1.42c-1.575.414-2.832 1.516-3.361 2.95-.315.849-.333 1.598-.057 2.291l.563 1.412-2.934 1.559c-.529.28-.956.62-1.27 1.011-1.232 1.529-1.28 3.88-.135 6.62.12.29.45.428.741.312l6.552-2.61c.82.961 2.135 1.435 3.414 1.129l4.464-1.067a2.45 2.45 0 0 0 2.223 1.42H25.207a2.46 2.46 0 0 0 1.745-.72c.2-.2.36-.438.483-.699l4.46 1.066a3.46 3.46 0 0 0 3.42-1.126l6.546 2.608a.574.574 0 0 0 .742-.312c1.145-2.74 1.097-5.09-.136-6.62-.315-.39-.743-.73-1.27-1.01l-2.934-1.56.563-1.412c.278-.694.259-1.443-.055-2.293zM2.427 16.89c.217-.27.524-.51.915-.718l2.823-1.5 1.926 4.825-5.839 2.326c-.51-1.407-.962-3.522.175-4.933zm6.75 2.236L6.24 11.764c-.169-.423-.147-.89.067-1.47A3.42 3.42 0 0 1 7.1 9.067a3.932 3.932 0 0 1 1.783-1.01L14.15 6.67l2.132 12.773-4.444 1.062a2.304 2.304 0 0 1-2.66-1.38zm9.643 1.7a1.315 1.315 0 0 1-1.301-1.101l-.93-5.57-1.367-8.304c-.006-.033-.025-.06-.036-.091l-.018-.111c-.06-.363.028-.742.296-1.268.203-.398.463-.754.768-1.06a4.22 4.22 0 0 1 2.994-1.227h5.55c.163 0 .324.015.483.033.038.003.077.003.114.008a4.18 4.18 0 0 1 3.166 2.246c.268.526.356.905.296 1.267l-.02.11c-.01.032-.03.06-.035.093l-1.371 8.331-.926 5.542a1.314 1.314 0 0 1-1.3 1.101l-6.363.001zm21.84-4.653c.39.206.698.448.916.717 1.137 1.411.685 3.526.175 4.933l-5.84-2.326 1.927-4.825 2.823 1.5zm-5.835 2.953a2.302 2.302 0 0 1-2.661 1.38l-4.444-1.063L29.852 6.67l5.264 1.386c1.214.32 2.178 1.156 2.579 2.239.214.579.235 1.046.067 1.468l-2.938 7.363z"/>
</svg>
