<svg xmlns="http://www.w3.org/2000/svg" viewBox="0 0 60 60">
    <path fill="#001832" fill-rule="nonzero" d="M54.21 0c.732 0 1.327.595 1.327 1.326v3.997c0 .661-.488 1.206-1.122 1.305v.303c0 1.442.334 1.894 1.144 2.987.15.203.313.424.489.67l1.312 1.84a9.569 9.569 0 0 1 1.786 5.585v34.283c0 .27-.056.526-.15.762h.253a.75.75 0 0 1 .75.75v5.442a.75.75 0 0 1-.75.75H.749A.748.748 0 0 1 0 59.25v-5.442a.75.75 0 0 1 .75-.75h.435a2.04 2.04 0 0 1-.145-.745V28.433c0-1.992.61-3.902 1.767-5.524l1.296-1.82c.198-.276.379-.518.545-.739.776-1.034 1.067-1.421 1.067-2.801v-1.213a1.318 1.318 0 0 1-1.108-1.297v-2.45c0-.727.591-1.319 1.319-1.319h1.59V3.798a.75.75 0 0 1 .239-.548l3.27-3.048a.751.751 0 0 1 1.262.548v10.522h1.59c.728 0 1.32.591 1.32 1.319v2.45c0 .654-.482 1.195-1.109 1.297v1.212c0 1.38.29 1.767 1.067 2.8.167.222.348.463.546.74l1.296 1.82a9.468 9.468 0 0 1 1.767 5.524v23.878c0 .264-.054.514-.145.746h2.66a2.04 2.04 0 0 1-.145-.745V26.933c0-1.992.61-3.902 1.767-5.524l1.296-1.82a8.638 8.638 0 0 0 1.612-5.04v-4.212a1.318 1.318 0 0 1-1.108-1.297V5.09c0-.728.591-1.32 1.319-1.32h7.953c.727 0 1.319.593 1.319 1.32v3.95c0 .654-.481 1.195-1.108 1.297v4.212c0 1.817.557 3.56 1.611 5.04l1.297 1.82a9.465 9.465 0 0 1 1.767 5.524v25.38c0 .263-.054.513-.145.745h2.664a2.065 2.065 0 0 1-.149-.762V18.014c0-2.014.617-3.945 1.786-5.585l1.312-1.841c.175-.246.338-.467.489-.67.809-1.093 1.143-1.545 1.143-2.986v-.304a1.323 1.323 0 0 1-1.121-1.305V1.326c0-.731.595-1.326 1.326-1.326zM58.5 54.558h-57V58.5h57v-3.942zM2.539 28.941v23.372c0 .31.252.562.562.562h13.6c.31 0 .563-.252.563-.563V31.934c-3.475-.04-5.413-.697-7.183-1.383l-.422-.165c-1.855-.726-3.614-1.412-7.12-1.445zm55.107 20.384H42.728v2.971c0 .319.26.578.579.578h13.76c.32 0 .579-.26.579-.578v-2.97zm-20.288-5.002H22.634v7.99c0 .31.252.562.562.562h13.599c.31 0 .563-.252.563-.563v-7.99zm20.288.759H42.728v2.743h14.918v-2.743zM52.914 6.648h-5.455v.283c0 1.936-.573 2.709-1.439 3.879-.145.196-.303.41-.472.647l-1.312 1.841a8.088 8.088 0 0 0-1.508 4.715V43.58h14.917V18.012c0-1.7-.521-3.33-1.507-4.715l-1.313-1.84c-.169-.238-.327-.45-.472-.647-.867-1.17-1.439-1.942-1.439-3.88v-.282zM37.358 27.401H22.634v15.422h14.724V27.4zM12.588 16.36H7.214v1.19c0 1.88-.543 2.605-1.368 3.702-.159.212-.333.443-.522.709l-1.296 1.82a7.948 7.948 0 0 0-1.422 3.662c3.75.042 5.709.806 7.6 1.547 1.844.722 3.593 1.404 7.058 1.444v-2a7.977 7.977 0 0 0-1.488-4.654l-1.297-1.82c-.19-.265-.364-.497-.523-.709-.823-1.096-1.368-1.82-1.368-3.701v-1.19zm37.599-.243a5.588 5.588 0 0 1 5.582 5.581 5.588 5.588 0 0 1-5.582 5.582 5.588 5.588 0 0 1-5.581-5.582 5.588 5.588 0 0 1 5.581-5.581zM32.684 10.36H27.31v4.19c0 2.131-.654 4.175-1.891 5.91l-1.297 1.82a7.957 7.957 0 0 0-1.417 3.622h14.584a7.962 7.962 0 0 0-1.418-3.621l-1.297-1.82a10.13 10.13 0 0 1-1.89-5.911v-4.19zm17.503 7.256a4.086 4.086 0 0 0-4.081 4.082c0 2.25 1.83 4.081 4.081 4.081 2.25 0 4.082-1.83 4.082-4.081a4.086 4.086 0 0 0-4.082-4.082zm-36.49-4.844H6.106v2.088h7.59v-2.088zM10.786 2.475l-1.77 1.65v7.147h1.77V2.475zM33.79 5.272h-7.59V8.86h7.59V5.272zM54.037 1.5h-7.699v3.649h7.699V1.5z"/>
</svg>
