<svg width="52" height="58" viewBox="0 0 52 58" fill="none" xmlns="http://www.w3.org/2000/svg">
<path d="M15 21.2364C15 19.9721 15.944 18.9068 17.1992 18.7546L27.6992 17.4819C29.1883 17.3014 30.5 18.4637 30.5 19.9637V23.9198C30.5 25.1842 29.556 26.2495 28.3008 26.4016L17.8008 27.6744C16.3117 27.8549 15 26.6925 15 25.1925V21.2364Z" stroke="black"/>
<path d="M17.2521 22.3378C17.458 21.3215 18.3028 20.5584 19.3347 20.4566L25.8743 19.811C27.2807 19.6722 28.5 20.777 28.5 22.1903C28.5 23.4279 27.5555 24.461 26.3228 24.5716L19.7778 25.159C18.2042 25.3002 16.9384 23.8863 17.2521 22.3378Z" stroke="black"/>
<path d="M29 17.5781L14.5 2.57811C13.6667 1.91144 11.1 0.678111 7.5 1.07811C4.20023 1.44475 2.60878 2.67957 2.10959 3.39638C2.02847 3.51287 1.97702 3.6455 1.93441 3.78091C1.65083 4.68197 1.20858 6.38773 1.05485 8.00376C0.988961 8.69645 1.24187 9.37183 1.68421 9.90895L15 26.0781" stroke="black" stroke-linecap="round" stroke-linejoin="round"/>
<path d="M1.99963 3.57819L15.4996 19.5782" stroke="black"/>
<path d="M29.4465 17.5L36.117 10.0086C36.3702 9.72421 36.6729 9.48366 37.0259 9.34093C41.9454 7.35211 48.0523 11.1128 49.5003 12.0781C50.4013 12.6788 50.7949 14.2568 50.9351 15.4996C51.0135 16.1939 50.7564 16.8726 50.3107 17.4107L34.5003 36.5L17.3899 56.1311C17.1326 56.4263 16.8236 56.6887 16.4376 56.754C13.766 57.2058 7.78049 53.9674 4.51863 51.9099C4.1737 51.6923 3.86924 51.4096 3.70249 51.0375C3.20907 49.9362 3.14702 48.4189 3.81694 46.5529C3.93072 46.236 4.11464 45.9497 4.33857 45.6982L20.5424 27.5" stroke="black" stroke-linecap="round" stroke-linejoin="round"/>
<path d="M4 46.5781C7.16667 48.0781 14.2 51.2 15 52C16 53 16.5 54.4219 16 56.5" stroke="black" stroke-linecap="round" stroke-linejoin="round"/>
<path d="M15 52C15 52 24 40 31.5 32C39 24 49 12.0781 49 12.0781" stroke="black" stroke-linecap="round" stroke-linejoin="round"/>
<circle cx="39.5" cy="12.5" r="0.5" fill="#010000"/>
<circle cx="43.5" cy="13.5" r="0.5" fill="#010000"/>
<circle cx="38.5" cy="17.5" r="0.5" fill="#010000"/>
<circle cx="34.5" cy="17.5" r="0.5" fill="#010000"/>
<circle cx="34.5" cy="23.5" r="0.5" fill="#010000"/>
<circle cx="29.5" cy="29.5" r="0.5" fill="#010000"/>
<circle cx="26.5" cy="32.5" r="0.5" fill="#010000"/>
<circle cx="17.5" cy="15.5" r="0.5" fill="#010000"/>
<circle cx="11.5" cy="7.5" r="0.5" fill="#010000"/>
<circle cx="17.5" cy="9.5" r="0.5" fill="#010000"/>
<circle cx="13.5" cy="11.5" r="0.5" fill="#010000"/>
<circle cx="12.5" cy="18.5" r="0.5" fill="#010000"/>
<circle cx="8.5" cy="14.5" r="0.5" fill="#010000"/>
<circle cx="3.5" cy="7.5" r="0.5" fill="#010000"/>
<circle cx="6.5" cy="3.5" r="0.5" fill="#010000"/>
<circle cx="11.5" cy="3.5" r="0.5" fill="#010000"/>
<circle cx="8.5" cy="6.5" r="0.5" fill="#010000"/>
<circle cx="22.5" cy="14.5" r="0.5" fill="#010000"/>
<circle cx="19.5" cy="49.5" r="0.5" fill="#010000"/>
<circle cx="23.5" cy="44.5" r="0.5" fill="#010000"/>
<circle cx="28.5" cy="40.5" r="0.5" fill="#010000"/>
<circle cx="31.5" cy="34.5" r="0.5" fill="#010000"/>
<circle cx="36.5" cy="30.5" r="0.5" fill="#010000"/>
<circle cx="39.5" cy="26.5" r="0.5" fill="#010000"/>
<circle cx="43.5" cy="22.5" r="0.5" fill="#010000"/>
<circle cx="48.5" cy="16.5" r="0.5" fill="#010000"/>
<circle cx="23.5" cy="30.5" r="0.5" fill="#010000"/>
<circle cx="22.5" cy="35.5" r="0.5" fill="#010000"/>
<circle cx="17.5" cy="35.5" r="0.5" fill="#010000"/>
<circle cx="19.5" cy="40.5" r="0.5" fill="#010000"/>
<circle cx="22.5" cy="38.5" r="0.5" fill="#010000"/>
<circle cx="12.5" cy="40.5" r="0.5" fill="#010000"/>
<circle cx="12.5" cy="43.5" r="0.5" fill="#010000"/>
<circle cx="15.5" cy="44.5" r="0.5" fill="#010000"/>
<circle cx="14.5" cy="48.5" r="0.5" fill="#010000"/>
<circle cx="8.5" cy="44.5" r="0.5" fill="#010000"/>
<circle cx="6.5" cy="49.5" r="0.5" fill="#010000"/>
<circle cx="8.5" cy="52.5" r="0.5" fill="#010000"/>
<circle cx="11.5" cy="53.5" r="0.5" fill="#010000"/>
</svg>
