<svg width="98" height="50" viewBox="0 0 98 50" fill="none" xmlns="http://www.w3.org/2000/svg">
<path fill-rule="evenodd" clip-rule="evenodd" d="M24.954 19.8669C38.3542 2.07321 62.097 1.14008 63.135 1.1079C63.2694 1.09003 87.7598 -1.67836 96.9204 21.9894C97.0164 22.2385 97.026 22.5114 96.9468 22.7664C96.882 22.9762 90.1441 43.723 63.3294 43.723H63.1686C62.7762 43.7111 59.337 43.574 54.4855 42.5372C54.4739 42.5552 54.4627 42.5734 54.4515 42.5915L54.4514 42.5918L54.4513 42.5918C54.4107 42.6576 54.3705 42.7229 54.3103 42.778C49.1684 47.496 43.6029 49 38.8978 49C35.3339 49.0012 32.2643 48.1372 30.2447 47.1576C27.5484 45.8479 26.0784 44.2104 26.2104 42.6659C26.2512 42.194 26.532 41.0392 28.2576 40.5351C32.2991 39.3589 35.2487 36.525 36.3442 35.3428C32.2475 32.7591 28.2816 29.3829 24.954 24.964C24.1044 27.065 22.5697 30.3923 20.2657 33.6827C15.6158 40.3206 9.89548 43.7874 3.64239 43.7874C3.13 43.7874 2.61401 43.7635 2.09442 43.7171C1.48483 43.6622 1.01563 43.1617 1.00243 42.5539C0.990435 41.9545 0.805637 28.5666 8.16391 22.4149C0.804438 16.2631 0.990435 2.87524 1.00243 2.2758C1.01563 1.66802 1.48603 1.16749 2.09442 1.11267C8.9499 0.497736 15.2342 3.96567 20.2657 11.1482C22.5709 14.4374 24.1044 17.7647 24.954 19.8669ZM10.8303 23.4207C4.46798 27.4452 3.54999 37.9634 3.42279 41.4027C16.1558 41.5767 22.4221 25.0677 23.3485 22.4161C22.4221 19.7656 16.1318 3.25302 3.42279 3.4282C3.55119 6.86635 4.46798 17.3846 10.8303 21.409C11.1771 21.6283 11.3859 22.0073 11.3859 22.4149C11.3859 22.8224 11.1771 23.2014 10.8303 23.4207ZM26.064 22.4149C36.3574 7.68149 54.6211 4.39112 61.0218 3.67608C58.3363 8.36554 50.8256 24.299 60.9846 41.1524C54.6703 40.4553 36.3838 37.1911 26.064 22.4149ZM28.6296 42.94C28.8108 43.3774 29.8979 44.5572 32.5343 45.5416C37.5166 47.3995 45.0453 47.3328 51.692 41.8711C47.6816 40.8188 43.0365 39.1658 38.4454 36.5857C37.5022 37.6666 34.0163 41.3407 28.9332 42.8209C28.7832 42.865 28.6872 42.9079 28.6296 42.94ZM63.8946 41.3276C63.888 41.3157 63.8842 41.3033 63.8804 41.2909C63.8759 41.2761 63.8713 41.2614 63.8622 41.2478C51.2324 22.1217 63.3222 4.39708 63.843 3.65225C63.8767 3.60323 63.8958 3.55028 63.9149 3.49726L63.9149 3.49715C63.9236 3.47287 63.9324 3.44857 63.9426 3.42463C67.6673 3.13861 86.6234 2.70721 94.5192 22.4387C93.5161 25.1034 86.5418 41.0762 63.8946 41.3276ZM69.2885 18.2402C69.2885 14.8831 72.0292 12.1517 75.4 12.1517C78.7707 12.1517 81.5127 14.8831 81.5127 18.2402C81.5127 18.8993 80.9751 19.432 80.3127 19.432C79.6503 19.432 79.1127 18.8993 79.1127 18.2402C79.1127 16.1976 77.4471 14.5351 75.4 14.5351C73.354 14.5351 71.6884 16.1964 71.6884 18.2402C71.6884 18.8993 71.1508 19.432 70.4885 19.432C69.8261 19.432 69.2885 18.8993 69.2885 18.2402Z" fill="#4FA3BD"/>
<path d="M63.135 1.1079L63.1427 1.35778L63.1554 1.35739L63.1679 1.35572L63.135 1.1079ZM24.954 19.8669L24.7222 19.9606L24.8878 20.3704L25.1537 20.0173L24.954 19.8669ZM96.9204 21.9894L97.1537 21.8995L97.1536 21.8992L96.9204 21.9894ZM96.9468 22.7664L96.7081 22.6923L96.7079 22.6926L96.9468 22.7664ZM63.1686 43.723L63.161 43.973H63.1686V43.723ZM54.4855 42.5372L54.5378 42.2928L54.3693 42.2568L54.2757 42.4014L54.4855 42.5372ZM54.4515 42.5915L54.2387 42.4602L54.2386 42.4604L54.4515 42.5915ZM54.4514 42.5918L54.6595 42.7305L54.6643 42.7228L54.4514 42.5918ZM54.4513 42.5918L54.2432 42.453L54.2385 42.4606L54.4513 42.5918ZM54.3103 42.778L54.1415 42.5936L54.1413 42.5938L54.3103 42.778ZM38.8978 49V48.75H38.8977L38.8978 49ZM30.2447 47.1576L30.1355 47.3825L30.1356 47.3825L30.2447 47.1576ZM26.2104 42.6659L25.9613 42.6444L25.9613 42.6447L26.2104 42.6659ZM28.2576 40.5351L28.1877 40.2951L28.1875 40.2952L28.2576 40.5351ZM36.3442 35.3428L36.5276 35.5127L36.7322 35.2919L36.4776 35.1313L36.3442 35.3428ZM24.954 24.964L25.1537 24.8136L24.8879 24.4606L24.7223 24.8703L24.954 24.964ZM20.2657 33.6827L20.4705 33.8261L20.4705 33.8261L20.2657 33.6827ZM2.09442 43.7171L2.07202 43.966L2.07214 43.9661L2.09442 43.7171ZM1.00243 42.5539L0.752484 42.5589L0.752493 42.5594L1.00243 42.5539ZM8.16391 22.4149L8.32426 22.6067L8.5537 22.4148L8.32425 22.223L8.16391 22.4149ZM1.00243 2.2758L0.752493 2.27037L0.752484 2.2708L1.00243 2.2758ZM2.09442 1.11267L2.07208 0.863669L2.07198 0.863678L2.09442 1.11267ZM20.2657 11.1482L20.0609 11.2917L20.061 11.2917L20.2657 11.1482ZM3.42279 41.4027L3.17296 41.3935L3.16351 41.6492L3.41938 41.6527L3.42279 41.4027ZM10.8303 23.4207L10.6967 23.2094L10.6966 23.2094L10.8303 23.4207ZM23.3485 22.4161L23.5845 22.4985L23.6133 22.416L23.5845 22.3336L23.3485 22.4161ZM3.42279 3.4282L3.41935 3.17823L3.16342 3.18175L3.17297 3.43753L3.42279 3.4282ZM10.8303 21.409L10.6966 21.6203L10.6967 21.6203L10.8303 21.409ZM61.0218 3.67608L61.2388 3.80032L61.4835 3.37295L60.9941 3.42763L61.0218 3.67608ZM26.064 22.4149L25.8591 22.2717L25.7591 22.4148L25.859 22.558L26.064 22.4149ZM60.9846 41.1524L60.9572 41.4009L61.4598 41.4564L61.1987 41.0234L60.9846 41.1524ZM32.5343 45.5416L32.4469 45.7758L32.447 45.7758L32.5343 45.5416ZM28.6296 42.94L28.5076 42.7218L28.3135 42.8303L28.3986 43.0357L28.6296 42.94ZM51.692 41.8711L51.8507 42.0642L52.2289 41.7535L51.7554 41.6292L51.692 41.8711ZM38.4454 36.5857L38.5679 36.3678L38.3907 36.2682L38.257 36.4214L38.4454 36.5857ZM28.9332 42.8209L28.8633 42.5808L28.8627 42.581L28.9332 42.8209ZM63.8804 41.2909L63.6414 41.3644L63.6414 41.3644L63.8804 41.2909ZM63.8946 41.3276L63.6754 41.448L63.7476 41.5793L63.8973 41.5776L63.8946 41.3276ZM63.8622 41.2478L63.6535 41.3856L63.6546 41.3871L63.8622 41.2478ZM63.843 3.65225L64.0479 3.79551L64.0489 3.79396L63.843 3.65225ZM63.9149 3.49726L64.1502 3.58202L64.153 3.57345L63.9149 3.49726ZM63.9149 3.49715L63.6795 3.41236L63.6768 3.42096L63.9149 3.49715ZM63.9426 3.42463L63.9234 3.17536L63.7719 3.187L63.7125 3.3269L63.9426 3.42463ZM94.5192 22.4387L94.7532 22.5268L94.7874 22.4359L94.7514 22.3458L94.5192 22.4387ZM63.1272 0.858022C62.5951 0.874517 56.3749 1.11758 48.6046 3.58859C40.835 6.05937 31.4964 10.764 24.7543 19.7165L25.1537 20.0173C31.8119 11.1762 41.0447 6.51735 48.7561 4.06508C56.4667 1.61306 62.6369 1.37346 63.1427 1.35778L63.1272 0.858022ZM97.1536 21.8992C92.5401 9.97973 84.0583 4.70958 76.7171 2.4278C69.3859 0.149152 63.1901 0.848367 63.102 0.860085L63.1679 1.35572C63.1676 1.35577 63.1918 1.35288 63.2425 1.34783C63.2916 1.34293 63.3633 1.33623 63.4563 1.32861C63.6424 1.31337 63.9137 1.29447 64.2607 1.27903C64.9546 1.24813 65.9507 1.23106 67.1715 1.28458C69.6137 1.39164 72.9518 1.78108 76.5686 2.90527C83.7964 5.15178 92.1401 10.3313 96.6873 22.0797L97.1536 21.8992ZM97.1856 22.8406C97.2815 22.5315 97.2698 22.2008 97.1537 21.8995L96.6871 22.0793C96.763 22.2762 96.7705 22.4913 96.7081 22.6923L97.1856 22.8406ZM63.3294 43.973C90.3146 43.973 97.111 23.0818 97.1857 22.8402L96.7079 22.6926C96.7079 22.6928 96.7079 22.6927 96.7078 22.6931C96.7077 22.6934 96.7076 22.6937 96.7074 22.6943C96.7071 22.6953 96.7066 22.6967 96.7061 22.6985C96.7049 22.7021 96.7034 22.7069 96.7013 22.7131C96.6973 22.7253 96.6916 22.7425 96.6841 22.7644C96.6692 22.8082 96.6474 22.8708 96.6182 22.9509C96.56 23.1111 96.4725 23.3414 96.3525 23.6316C96.1125 24.2121 95.7428 25.032 95.2173 26.0111C94.1661 27.9697 92.4927 30.5628 89.9897 33.1495C84.9883 38.3179 76.6635 43.473 63.3294 43.473V43.973ZM63.1686 43.973H63.3294V43.473H63.1686V43.973ZM54.4333 42.7817C59.3031 43.8224 62.7578 43.9607 63.161 43.9729L63.1762 43.4731C62.7946 43.4615 59.371 43.3257 54.5378 42.2928L54.4333 42.7817ZM54.6643 42.7227C54.6757 42.7042 54.6855 42.6884 54.6954 42.6731L54.2757 42.4014C54.2623 42.422 54.2497 42.4425 54.2387 42.4602L54.6643 42.7227ZM54.6643 42.7228L54.6644 42.7225L54.2386 42.4604L54.2384 42.4607L54.6643 42.7228ZM54.6593 42.7305L54.6594 42.7304L54.2433 42.4531L54.2433 42.4531L54.6593 42.7305ZM54.4791 42.9624C54.5689 42.8802 54.6259 42.7849 54.6641 42.723L54.2385 42.4606C54.1956 42.5303 54.1721 42.5656 54.1415 42.5936L54.4791 42.9624ZM38.8978 49.25C43.6588 49.25 49.2866 47.7269 54.4794 42.9622L54.1413 42.5938C49.0502 47.2652 43.547 48.75 38.8978 48.75V49.25ZM30.1356 47.3825C32.1888 48.3784 35.2957 49.2512 38.8979 49.25L38.8977 48.75C35.372 48.7512 32.3398 47.8959 30.3538 46.9326L30.1356 47.3825ZM25.9613 42.6447C25.8875 43.5084 26.2646 44.3692 26.9809 45.1668C27.6975 45.9647 28.7692 46.7188 30.1355 47.3825L30.354 46.9327C29.0239 46.2867 28.0125 45.5672 27.3529 44.8328C26.6932 44.0982 26.4013 43.368 26.4595 42.6872L25.9613 42.6447ZM28.1875 40.2952C27.2754 40.5616 26.7246 41.0074 26.3982 41.4681C26.0744 41.9251 25.9843 42.3784 25.9613 42.6444L26.4595 42.6875C26.4773 42.4816 26.548 42.1215 26.8062 41.7571C27.0618 41.3964 27.5141 41.0128 28.3277 40.7751L28.1875 40.2952ZM36.1609 35.1728C35.0759 36.3435 32.1641 39.1378 28.1877 40.2951L28.3274 40.7752C32.4341 39.58 35.4214 36.7064 36.5276 35.5127L36.1609 35.1728ZM24.7543 25.1144C28.1028 29.561 32.0925 32.9569 36.2109 35.5542L36.4776 35.1313C32.4025 32.5613 28.4604 29.2048 25.1537 24.8136L24.7543 25.1144ZM20.4705 33.8261C22.7889 30.515 24.332 27.1692 25.1858 25.0577L24.7223 24.8703C23.8769 26.9608 22.3504 30.2696 20.0609 33.5393L20.4705 33.8261ZM3.64239 44.0374C10.0002 44.0374 15.7889 40.5093 20.4705 33.8261L20.0609 33.5392C15.4427 40.132 9.79073 43.5374 3.64239 43.5374V44.0374ZM2.07214 43.9661C2.59881 44.0132 3.12224 44.0374 3.64239 44.0374V43.5374C3.13776 43.5374 2.6292 43.5139 2.11669 43.468L2.07214 43.9661ZM0.752493 42.5594C0.768479 43.2954 1.33662 43.8999 2.07202 43.966L2.11681 43.4681C1.63303 43.4245 1.26279 43.028 1.25238 42.5485L0.752493 42.5594ZM8.00356 22.2231C4.25922 25.3534 2.45044 30.3065 1.57456 34.5156C0.697088 38.7323 0.746302 42.2501 0.752484 42.5589L1.25238 42.5489C1.24657 42.2583 1.19738 38.7824 2.06408 34.6174C2.93237 30.4448 4.71033 25.628 8.32426 22.6067L8.00356 22.2231ZM0.752484 2.2708C0.746302 2.57962 0.696785 6.09737 1.57411 10.3142C2.44984 14.5233 4.25862 19.4763 8.00358 22.6067L8.32425 22.223C4.70973 19.2017 2.93177 14.3849 2.06363 10.2123C1.19709 6.04735 1.24657 2.57141 1.25238 2.2808L0.752484 2.2708ZM2.07198 0.863678C1.338 0.929814 0.768483 1.53412 0.752493 2.27037L1.25238 2.28123C1.26279 1.80191 1.63405 1.40516 2.11685 1.36166L2.07198 0.863678ZM20.4705 11.0048C15.4038 3.77211 9.04169 0.238498 2.07208 0.863669L2.11675 1.36167C8.8581 0.756974 15.0645 4.15923 20.0609 11.2917L20.4705 11.0048ZM25.1858 19.7733C24.332 17.6606 22.7901 14.3147 20.4704 11.0048L20.061 11.2917C22.3516 14.5602 23.8769 17.8689 24.7222 19.9606L25.1858 19.7733ZM3.67262 41.412C3.73586 39.7022 3.99583 36.2358 5.02834 32.7012C6.06278 29.1601 7.85948 25.5957 10.9639 23.632L10.6966 23.2094C7.43877 25.2702 5.59532 28.9771 4.5484 32.561C3.49954 36.1515 3.23693 39.6639 3.17296 41.3935L3.67262 41.412ZM23.1124 22.3336C22.6525 23.6502 20.8641 28.4131 17.6119 32.8205C14.3565 37.2324 9.67296 41.2381 3.42621 41.1527L3.41938 41.6527C9.90561 41.7413 14.7218 37.5795 18.0143 33.1174C21.3101 28.6509 23.1181 23.8335 23.5845 22.4985L23.1124 22.3336ZM3.42624 3.67818C9.66087 3.59224 14.3444 7.59836 17.603 12.011C20.8582 16.4191 22.6526 21.1827 23.1125 22.4985L23.5845 22.3336C23.118 20.999 21.304 16.181 18.0052 11.714C14.7098 7.25158 9.8937 3.08898 3.41935 3.17823L3.42624 3.67818ZM10.9639 21.1978C7.85949 19.2341 6.06309 15.6697 5.02879 12.1287C3.99643 8.59425 3.73645 5.12814 3.67262 3.41887L3.17297 3.43753C3.23753 5.1664 3.50014 8.67848 4.54885 12.2688C5.59562 15.8526 7.43876 19.5596 10.6966 21.6203L10.9639 21.1978ZM11.6359 22.4149C11.6359 21.9212 11.3828 21.4627 10.9639 21.1977L10.6967 21.6203C10.9713 21.794 11.1359 22.0934 11.1359 22.4149H11.6359ZM10.9639 23.632C11.3828 23.3671 11.6359 22.9085 11.6359 22.4149H11.1359C11.1359 22.7364 10.9713 23.0357 10.6967 23.2094L10.9639 23.632ZM60.9941 3.42763C54.5823 4.14391 36.2189 7.44326 25.8591 22.2717L26.2689 22.558C36.496 7.91972 54.66 4.63833 61.0496 3.92454L60.9941 3.42763ZM61.1987 41.0234C51.1128 24.2911 58.5655 8.46829 61.2388 3.80032L60.8049 3.55184C58.107 8.2628 50.5384 24.3068 60.7705 41.2815L61.1987 41.0234ZM25.859 22.558C36.2453 37.4294 54.6316 40.7025 60.9572 41.4009L61.0121 40.904C54.7091 40.208 36.5223 36.9528 26.269 22.2717L25.859 22.558ZM32.6217 45.3074C31.3233 44.8226 30.4145 44.2926 29.8122 43.8364C29.2002 43.3728 28.9256 43.0015 28.8605 42.8444L28.3986 43.0357C28.5147 43.316 28.8743 43.7532 29.5103 44.235C30.156 44.7241 31.1089 45.2762 32.4469 45.7758L32.6217 45.3074ZM51.5333 41.6779C44.9631 47.0768 37.5302 47.1377 32.6216 45.3074L32.447 45.7758C37.5031 47.6613 45.1275 47.5888 51.8507 42.0642L51.5333 41.6779ZM38.3229 36.8037C42.9366 39.3964 47.6025 41.0565 51.6285 42.1129L51.7554 41.6292C47.7608 40.5811 43.1365 38.9352 38.5679 36.3678L38.3229 36.8037ZM29.0031 43.0609C34.1558 41.5605 37.6808 37.8423 38.6338 36.7501L38.257 36.4214C37.3237 37.491 33.8767 41.121 28.8633 42.5808L29.0031 43.0609ZM28.7515 43.1583C28.7894 43.1371 28.8674 43.1008 29.0037 43.0607L28.8627 42.581C28.699 42.6291 28.5849 42.6786 28.5076 42.7218L28.7515 43.1583ZM63.6414 41.3644C63.6442 41.3735 63.6547 41.4102 63.6754 41.448L64.1137 41.2073C64.1182 41.2154 64.1205 41.2215 64.1212 41.2235C64.1216 41.2244 64.1216 41.2246 64.1213 41.2235C64.1209 41.2223 64.1204 41.2208 64.1194 41.2174L63.6414 41.3644ZM63.6546 41.3871C63.6465 41.3751 63.6422 41.365 63.6404 41.3604C63.6395 41.3583 63.6392 41.3572 63.6394 41.3579C63.6398 41.3589 63.6402 41.3603 63.6414 41.3644L64.1194 41.2175C64.1162 41.2072 64.1025 41.1573 64.0697 41.1085L63.6546 41.3871ZM63.6381 3.50899C63.1116 4.26191 50.9294 22.1166 63.6535 41.3855L64.0708 41.11C51.5354 22.1268 63.5327 4.53225 64.0479 3.7955L63.6381 3.50899ZM63.6796 3.41255C63.6591 3.46961 63.6496 3.4922 63.637 3.51054L64.0489 3.79396C64.1038 3.71426 64.1324 3.63096 64.1501 3.58197L63.6796 3.41255ZM63.6768 3.42096L63.6768 3.42106L64.153 3.57345L64.153 3.57334L63.6768 3.42096ZM63.7125 3.3269C63.6991 3.35832 63.6881 3.38918 63.6797 3.41242L64.1501 3.58188C64.1592 3.55655 64.1657 3.53882 64.1727 3.52236L63.7125 3.3269ZM94.7514 22.3458C86.7888 2.44763 67.6651 2.88805 63.9234 3.17536L63.9617 3.67389C67.6695 3.38918 86.458 2.96678 94.2871 22.5316L94.7514 22.3458ZM63.8973 41.5776C86.6972 41.3245 93.7351 25.2313 94.7532 22.5268L94.2853 22.3506C93.2971 24.9755 86.3864 40.8279 63.8918 41.0776L63.8973 41.5776ZM75.4 11.9017C71.892 11.9017 69.0385 14.7442 69.0385 18.2402H69.5385C69.5385 15.0221 72.1664 12.4017 75.4 12.4017V11.9017ZM81.7627 18.2402C81.7627 14.7441 78.9079 11.9017 75.4 11.9017V12.4017C78.6336 12.4017 81.2627 15.0221 81.2627 18.2402H81.7627ZM80.3127 19.682C81.1114 19.682 81.7627 19.0391 81.7627 18.2402H81.2627C81.2627 18.7594 80.8388 19.182 80.3127 19.182V19.682ZM78.8627 18.2402C78.8627 19.0391 79.514 19.682 80.3127 19.682V19.182C79.7866 19.182 79.3627 18.7594 79.3627 18.2402H78.8627ZM75.4 14.7851C77.3095 14.7851 78.8627 16.3361 78.8627 18.2402H79.3627C79.3627 16.0591 77.5847 14.2851 75.4 14.2851V14.7851ZM71.9384 18.2402C71.9384 16.335 73.4916 14.7851 75.4 14.7851V14.2851C73.2164 14.2851 71.4384 16.0579 71.4384 18.2402H71.9384ZM70.4885 19.682C71.2871 19.682 71.9384 19.0391 71.9384 18.2402H71.4384C71.4384 18.7594 71.0146 19.182 70.4885 19.182V19.682ZM69.0385 18.2402C69.0385 19.0391 69.6898 19.682 70.4885 19.682V19.182C69.9623 19.182 69.5385 18.7594 69.5385 18.2402H69.0385Z" fill="#4FA3BD"/>
</svg>
