<svg width="52" height="44" viewBox="0 0 52 44" fill="none" xmlns="http://www.w3.org/2000/svg">
<path d="M20 18.4193C20.4794 17.6921 24.9062 11.4588 25.8311 10.157C25.9456 9.99587 26.0491 9.83334 26.1472 9.66173L27.8149 6.74316C27.9382 6.52746 28.0782 6.32136 28.1878 6.09844C28.4732 5.51816 28.8668 4.22747 27.686 2.86483C26 0.919305 23.2188 0.605452 20 1.41931C17.6254 2.01971 13.1648 4.01079 10.5916 5.06173C10.1866 5.22713 9.79551 5.42554 9.46628 5.71358C8.67965 6.40175 7.68657 7.51069 7.1661 8.15492C6.36142 9.15096 1.90235 14.757 1.5 18.4193" stroke="black" stroke-linecap="round" stroke-linejoin="round"/>
<path d="M4.82118 17.873C7.20005 16.6012 11.7514 15.6236 15.0694 14.6015C16.2758 14.229 18.169 14.96 18.5354 15.8678C18.8285 16.5941 18.1033 17.8177 17.454 18.1736C16.8046 18.5295 5.65022 22.6636 4.48455 22.1801C3.31887 21.6966 2.4423 19.1448 4.82118 17.873Z" stroke="black" stroke-linecap="round" stroke-linejoin="round"/>
<path d="M3.13079 16.9829C6.29719 15.0705 12.2341 13.9018 16.5879 12.5206C18.171 12.0169 20.5458 13.4768 20.9416 15.0705C21.2583 16.3454 20.2235 18.3584 19.3584 18.8953C18.4934 19.4323 3.79865 25.2701 2.3392 24.3138C0.879758 23.3576 -0.0355978 18.8953 3.13079 16.9829Z" stroke="black" stroke-linecap="round" stroke-linejoin="round"/>
<path d="M16.5 12.4194C17.625 9.63277 21.7 3.88343 23.5 1.41943" stroke="black" stroke-linecap="round" stroke-linejoin="round"/>
<path d="M12.7519 37.1667C12.139 36.5238 10.9472 35.532 9.6843 34.5371C7.55386 32.8588 6.53116 29.8732 7.98587 27.5843C8.78021 26.3344 11.5604 25.0845 12.7519 25.5012C13.2013 25.6583 14.4331 26.6238 15.8317 27.8044C18.8034 30.3129 21.1531 33.7673 20.9882 37.6528C20.9405 38.7779 20.7421 39.8014 20.2982 40.4998C19.4849 41.7796 18.1944 41.5351 17.0929 40.9019C15.9417 40.2401 14.9761 39.2886 13.998 38.3904C13.6175 38.041 13.1944 37.6308 12.7519 37.1667Z" stroke="black" stroke-linecap="round" stroke-linejoin="round"/>
<path d="M14.4598 41.8163C13.9247 41.5465 10.1121 37.8972 7.21956 35.4266C6.18684 34.5444 5.38354 33.386 5.16516 32.0455C4.65807 28.9327 5.38879 28.0865 6.40347 26.3812C7.37023 24.7565 14.057 21.9132 16.8768 20.6946C21.3078 18.2575 30.8949 12.8958 33.7952 10.9461C36.2773 9.27752 39.5265 9.27496 41.4219 9.56351C41.9793 9.64838 42.5014 9.86972 42.9841 10.1612C45.6942 11.7977 50.1256 14.7445 50.7136 16.2266C50.9394 16.7959 51.007 17.465 50.9994 18.1115C50.9801 19.7711 50.0306 21.3429 48.8289 22.4878C47.1161 24.1198 45.1873 25.9179 44.2684 26.3812C43.0674 26.9867 37.927 30.6949 35.167 33.4983C34.7822 33.8891 34.3653 34.2455 33.9089 34.5496C30.1327 37.0655 23.7276 42.1188 22.5162 43.0349C20.9049 44.2535 15.2655 42.2225 14.4598 41.8163Z" stroke="black" stroke-linecap="round" stroke-linejoin="round"/>
<path d="M21.8281 43.4194C22.8516 42.0861 24.6684 38.5394 23.7472 35.0194C22.5957 30.6194 17.3736 25.3194 12 22.9194" stroke="black" stroke-linecap="round" stroke-linejoin="round"/>
<path d="M23 32.4194C27.4688 29.0861 38.925 20.8194 49 14.4194" stroke="black" stroke-linecap="round" stroke-linejoin="round"/>
<circle cx="20.5" cy="22.9194" r="0.5" fill="#010000"/>
<circle cx="24.5" cy="20.9194" r="0.5" fill="#010000"/>
<circle cx="30.5" cy="21.9194" r="0.5" fill="#010000"/>
<circle cx="24.5" cy="24.9194" r="0.5" fill="#010000"/>
<circle cx="29.5" cy="16.9194" r="0.5" fill="#010000"/>
<circle cx="34.5" cy="13.9194" r="0.5" fill="#010000"/>
<circle cx="34.5" cy="17.9194" r="0.5" fill="#010000"/>
<circle cx="39.5" cy="14.9194" r="0.5" fill="#010000"/>
<circle cx="41.5" cy="12.9194" r="0.5" fill="#010000"/>
<circle cx="47.5" cy="19.9194" r="0.5" fill="#010000"/>
<circle cx="42.5" cy="22.9194" r="0.5" fill="#010000"/>
<circle cx="39.5" cy="26.9194" r="0.5" fill="#010000"/>
<circle cx="36.5" cy="26.9194" r="0.5" fill="#010000"/>
<circle cx="33.5" cy="31.9194" r="0.5" fill="#010000"/>
<circle cx="28.5" cy="31.9194" r="0.5" fill="#010000"/>
<circle cx="28.5" cy="34.9194" r="0.5" fill="#010000"/>
<circle cx="13.5" cy="10.9194" r="0.5" fill="#010000"/>
<circle cx="12.5" cy="7.91943" r="0.5" fill="#010000"/>
<circle cx="8.5" cy="10.9194" r="0.5" fill="#010000"/>
<circle cx="9.5" cy="7.91943" r="0.5" fill="#010000"/>
<circle cx="24.5" cy="4.91943" r="0.5" fill="#010000"/>
<circle cx="22.5" cy="7.91943" r="0.5" fill="#010000"/>
<circle cx="22.5" cy="11.9194" r="0.5" fill="#010000"/>
<circle cx="17.5" cy="5.91943" r="0.5" fill="#010000"/>
</svg>
