<svg xmlns="http://www.w3.org/2000/svg" viewBox="0 0 44 23">
    <path fill="#4FA3BD" fill-rule="nonzero" d="M28.496.05c.062-.008 11.294-1.287 15.495 9.643a.55.55 0 0 1 .012.359c-.03.096-3.12 9.677-15.418 9.677h-.073c-.18-.005-1.757-.069-3.982-.547-.025.038-.046.078-.08.11-2.359 2.18-4.911 2.874-7.07 2.874-1.634 0-3.042-.398-3.968-.85-1.236-.606-1.91-1.362-1.85-2.075.019-.218.147-.751.939-.984 1.853-.543 3.206-1.852 3.709-2.398-1.88-1.193-3.698-2.752-5.224-4.793-.39.97-1.094 2.507-2.15 4.027-2.133 3.065-4.756 4.666-7.624 4.666-.235 0-.472-.011-.71-.033a.55.55 0 0 1-.5-.537c-.006-.276-.091-6.459 3.284-9.3C-.09 7.05-.004.866 0 .59a.551.551 0 0 1 .5-.537C3.647-.232 6.529 1.37 8.837 4.686c1.057 1.52 1.76 3.056 2.15 4.027C17.13.496 28.02.065 28.496.05zM17.173 16.433c-.432.5-2.031 2.196-4.362 2.88a.686.686 0 0 0-.14.055c.084.202.582.746 1.791 1.201 2.285.858 5.738.827 8.786-1.695-1.839-.486-3.97-1.25-6.075-2.44zM1.111 1.121c.059 1.588.48 6.445 3.397 8.304a.55.55 0 0 1 0 .929c-2.918 1.858-3.339 6.715-3.397 8.304 5.84.08 8.714-7.544 9.138-8.768-.424-1.224-3.31-8.85-9.138-8.769zm41.779 8.78C39.269.787 30.575.987 28.867 1.12c-.015.035-.023.072-.046.105-.239.344-5.783 8.529.009 17.361.008.012.008.025.015.037C39.23 18.507 42.43 11.131 42.89 9.9zM27.527 1.235c-2.935.33-11.311 1.85-16.032 8.653 4.733 6.824 13.12 8.331 16.015 8.653-4.659-7.783-1.214-15.14.017-17.306zm6.594 3.914a2.81 2.81 0 0 1 2.804 2.811.55.55 0 1 1-1.101 0c0-.943-.764-1.71-1.703-1.71-.938 0-1.702.767-1.702 1.71a.55.55 0 1 1-1.1 0A2.81 2.81 0 0 1 34.12 5.15z"/>
</svg>
