<svg width="54" height="51" viewBox="0 0 54 51" fill="none" xmlns="http://www.w3.org/2000/svg">
<path d="M2.18225 11.7196C3.74816 7.98762 6.73289 7.49613 9.5295 7.75587C10.0254 7.80192 10.4842 8.23842 10.8788 8.54218C12.4218 9.7298 17.2058 11.0429 19.0329 10.8615C23.3536 10.4324 24.9378 8.14413 26.8101 7C26.8101 7.85811 32.1881 16.3831 31.9949 17.7263C31.5628 20.7296 31.5986 22.0587 28.5384 24.5911C26.6448 26.1581 23.6753 26.0463 21.314 25.5935C20.4475 25.4274 19.4365 26.4392 19.4109 27.321C19.3834 28.2699 19.2075 29.1835 19.0547 29.6724C19.0405 29.7178 19.0216 29.7624 18.9999 29.8047C16.4029 34.8823 11.9781 34.1743 10.8236 33.6011C9.09535 32.743 3.04639 26.3073 2.18225 24.5911C1.31812 22.8749 0.0219181 16.8682 2.18225 11.7196Z" stroke="black" stroke-linecap="round" stroke-linejoin="round"/>
<path d="M26.9669 7.10669C27.4005 4.87339 23.4992 2.14639 19.5978 1.30008C11.3617 -0.486565 9.62775 6.21336 10.0612 8" stroke="black" stroke-linecap="round" stroke-linejoin="round"/>
<path d="M16.4726 8.94786C14.5526 8.66142 12.9697 7.49126 12.2458 6.78032C12.109 6.64602 12.0226 6.46753 12.0085 6.27638C11.8215 3.73693 14.7645 3 16.4726 3C18.2445 3 21.3454 3.79305 23.5603 4.5861C25.7752 5.37914 24.8893 6.56872 24.4463 6.96524C24.0033 7.36176 19.1305 9.34439 16.4726 8.94786Z" stroke="black" stroke-linecap="round" stroke-linejoin="round"/>
<path d="M31.1397 14.87C32.8515 12.6746 36.7031 7.84461 38.4148 6.08826C40.5546 3.89283 44.4061 2.13648 47.4017 3.45374C50.3974 4.771 52.9651 9.60099 52.9651 13.1137C52.9651 16.6264 53.393 25.4081 51.2533 27.1645C49.1135 28.9208 44.4061 29.799 42.6943 28.0426C40.9825 26.2863 35.4192 24.969 33.2795 25.8472C31.5677 26.5497 29.7132 25.2618 29 24.5299" stroke="black" stroke-linecap="round" stroke-linejoin="round"/>
<path d="M25.1665 26.215C24.1175 27.4726 22.7234 29.8685 22.5322 30.3169C21.3128 33.1755 19.1584 33.1755 17.4635 35.3902C15.2539 38.2773 16.8238 43.44 18.4559 43.9939C19.5892 44.3786 24.717 44.3939 27.0055 44.7773C30.942 45.9777 37.6866 47.8258 40.0404 45.9065C42.1787 44.1629 41.827 41.1439 41.1907 39.0409C40.1983 35.7608 41.1907 32.7446 40.1983 30.4371C39.8937 29.7291 38.5862 27.3422 37.9998 26" stroke="black" stroke-linecap="round" stroke-linejoin="round"/>
<circle cx="41.5" cy="8.5" r="0.5" fill="#010000"/>
<circle cx="47.5" cy="9.5" r="0.5" fill="#010000"/>
<circle cx="47.5" cy="15.5" r="0.5" fill="#010000"/>
<circle cx="37.5" cy="13.5" r="0.5" fill="#010000"/>
<circle cx="43.5" cy="13.5" r="0.5" fill="#010000"/>
<circle cx="36.5" cy="18.5" r="0.5" fill="#010000"/>
<circle cx="42.5" cy="18.5" r="0.5" fill="#010000"/>
<circle cx="48.5" cy="22.5" r="0.5" fill="#010000"/>
<circle cx="42.5" cy="24.5" r="0.5" fill="#010000"/>
<circle cx="28.5" cy="28.5" r="0.5" fill="#010000"/>
<circle cx="28.5" cy="17.5" r="0.5" fill="#010000"/>
<circle cx="23.5" cy="21.5" r="0.5" fill="#010000"/>
<circle cx="23.5" cy="14.5" r="0.5" fill="#010000"/>
<circle cx="17.5" cy="14.5" r="0.5" fill="#010000"/>
<circle cx="18.5" cy="18.5" r="0.5" fill="#010000"/>
<circle cx="16.5" cy="23.5" r="0.5" fill="#010000"/>
<circle cx="13.5" cy="30.5" r="0.5" fill="#010000"/>
<circle cx="8.5" cy="26.5" r="0.5" fill="#010000"/>
<circle cx="11.5" cy="22.5" r="0.5" fill="#010000"/>
<circle cx="6.5" cy="19.5" r="0.5" fill="#010000"/>
<circle cx="6.5" cy="12.5" r="0.5" fill="#010000"/>
<circle cx="10.5" cy="16.5" r="0.5" fill="#010000"/>
<circle cx="11.5" cy="12.5" r="0.5" fill="#010000"/>
<circle cx="34.5" cy="29.5" r="0.5" fill="#010000"/>
<circle cx="36.5" cy="34.5" r="0.5" fill="#010000"/>
<circle cx="31.5" cy="32.5" r="0.5" fill="#010000"/>
<circle cx="24.5" cy="35.5" r="0.5" fill="#010000"/>
<circle cx="30.5" cy="39.5" r="0.5" fill="#010000"/>
<circle cx="36.5" cy="41.5" r="0.5" fill="#010000"/>
<circle cx="23.5" cy="40.5" r="0.5" fill="#010000"/>
<circle cx="19.5" cy="37.5" r="0.5" fill="#010000"/>
<circle cx="36.5" cy="22.5" r="0.5" fill="#010000"/>
</svg>
