<svg width="59" height="30" viewBox="0 0 59 30" fill="none" xmlns="http://www.w3.org/2000/svg">
<path fill-rule="evenodd" clip-rule="evenodd" d="M14.7217 11.7918C22.9573 0.670753 37.5492 0.0875494 38.1871 0.067439C38.2697 0.0562665 53.3211 -1.67398 58.9511 13.1184C59.0101 13.2741 59.016 13.4446 58.9673 13.604C58.9275 13.7351 54.7865 26.7019 38.3066 26.7019H38.2078C37.9666 26.6944 35.853 26.6088 32.8713 25.9608L32.863 25.974L32.8505 25.9945L32.8503 25.9949C32.8254 26.036 32.8006 26.0768 32.7636 26.1112C29.6035 29.06 26.183 30 23.2914 30C21.101 30.0007 19.2145 29.4607 17.9733 28.8485C16.3162 28.0299 15.4128 27.0065 15.4939 26.0412C15.519 25.7463 15.6915 25.0245 16.7521 24.7095C19.2359 23.9743 21.0487 22.2031 21.722 21.4642C19.2042 19.8494 16.7668 17.7393 14.7217 14.9775C14.1996 16.2906 13.2564 18.3702 11.8404 20.4267C8.98262 24.5754 5.46702 26.7421 1.62397 26.7421C1.30906 26.7421 0.991942 26.7272 0.67261 26.6982C0.297966 26.6639 0.0096085 26.3511 0.00149614 25.9712C-0.00587873 25.5966 -0.119452 17.2291 4.40282 13.3843C-0.120189 9.53947 -0.00587873 1.17202 0.00149614 0.797374C0.0096085 0.41751 0.298704 0.104681 0.67261 0.0704183C4.88588 -0.313915 8.7481 1.85355 11.8404 6.34265C13.2571 8.39838 14.1996 10.478 14.7217 11.7918ZM6.04177 14.0128C2.13161 16.5281 1.56743 23.102 1.48926 25.2515C9.31474 25.3603 13.1659 15.0421 13.7352 13.3849C13.1659 11.7284 9.29999 1.40798 1.48926 1.51747C1.56817 3.66631 2.13161 10.2402 6.04177 12.7555C6.2549 12.8925 6.38322 13.1294 6.38322 13.3841C6.38322 13.6389 6.2549 13.8757 6.04177 14.0128ZM15.4043 13.3841C21.7305 4.17574 32.955 2.11926 36.8888 1.67236C35.2383 4.60328 30.6224 14.5617 36.8659 25.0951C32.9853 24.6594 21.7467 22.6193 15.4043 13.3841ZM16.9807 26.2125C17.092 26.4859 17.7602 27.2233 19.3805 27.8385C22.4425 28.9997 27.0695 28.958 31.1544 25.5444C28.6898 24.8867 25.8349 23.8536 23.0133 22.2411C22.4337 22.9166 20.2913 25.213 17.1673 26.138C17.0751 26.1656 17.0161 26.1924 16.9807 26.2125ZM38.6535 25.2046C38.6495 25.1972 38.6471 25.1894 38.6448 25.1817C38.642 25.1725 38.6392 25.1633 38.6336 25.1547C30.8716 13.2009 38.3017 2.12304 38.6218 1.65752C38.6425 1.6269 38.6542 1.59383 38.666 1.56071L38.666 1.56066C38.6714 1.54546 38.6768 1.53025 38.683 1.51526C40.9722 1.3365 52.6223 1.06687 57.4749 13.3991C56.8584 15.0645 52.5721 25.0475 38.6535 25.2046ZM41.969 10.7751C41.969 8.67695 43.6534 6.9698 45.725 6.9698C47.7966 6.9698 49.4817 8.67695 49.4817 10.7751C49.4817 11.187 49.1514 11.52 48.7443 11.52C48.3372 11.52 48.0068 11.187 48.0068 10.7751C48.0068 9.4985 46.9831 8.45946 45.725 8.45946C44.4676 8.45946 43.4439 9.49776 43.4439 10.7751C43.4439 11.187 43.1135 11.52 42.7064 11.52C42.2994 11.52 41.969 11.187 41.969 10.7751Z" fill="#001832"/>
</svg>
