<svg xmlns="http://www.w3.org/2000/svg"  viewBox="0 0 43 18">
    <path fill="#001832" fill-rule="nonzero" d="M5.902 1.16C5.38.928 4.872.7 4.394.47a.525.525 0 0 0-.733.621c.026.087.602 2.032 2.106 4.696-1.665.39-3.687 1.2-5.066 2.881a.526.526 0 0 0 0 .668c1.358 1.656 3.346 2.465 4.98 2.86-1.558 2.889-2.029 4.647-2.05 4.725a.524.524 0 0 0 .739.606c.442-.214.909-.427 1.384-.645 2.336-1.068 4.916-2.253 6.218-4.297a3.982 3.982 0 0 0 1.198 1.93 3.983 3.983 0 0 0 3.127.968l23.083-2.86A3.656 3.656 0 0 0 42.58 9a3.657 3.657 0 0 0-3.202-3.624l-23.082-2.86a3.981 3.981 0 0 0-3.128.968 3.978 3.978 0 0 0-1.173 1.841C10.75 3.328 8.208 2.188 5.902 1.16zM26.179 4.8v8.4l-5.917.733V4.067l5.917.733zm6.968.864v6.673l-5.917.733V4.93l5.917.734zm6.103.756c1.3.16 2.28 1.27 2.28 2.58s-.98 2.42-2.28 2.58l-5.05.626V5.794l5.05.626zM13.866 4.272a2.933 2.933 0 0 1 2.302-.712l3.042.377v10.127l-3.042.377a2.937 2.937 0 0 1-2.302-.712 2.935 2.935 0 0 1-.99-2.197V9.077v-.024V6.47c0-.841.36-1.642.99-2.198zM11.67 7.38c.003.015.345 1.64-.004 3.247-.576 2.66-3.645 4.063-6.351 5.3l-.277.127c.341-.884.937-2.248 1.903-3.965a.525.525 0 0 0-.362-.775c-1.452-.271-3.409-.89-4.77-2.31 1.386-1.447 3.387-2.066 4.87-2.33a.525.525 0 0 0 .36-.787 27.94 27.94 0 0 1-1.957-3.94l.39.174c2.7 1.203 5.758 2.568 6.198 5.259z"/>
</svg>
