<svg xmlns="http://www.w3.org/2000/svg" viewBox="0 0 52 51">
    <path fill="#C6191B" fill-rule="nonzero" d="M41.802 0c.352 0 .638.285.638.637v2.36h7.93c.351 0 .637.286.637.638v9.623c0 4.46-3.764 8.089-8.392 8.089h-.894c-1.788 6.18-6.782 11.033-13.058 12.198v6.015h1.633c1.324 0 2.402 1.092 2.402 2.434v1.998h.654c1.31 0 2.377 1.103 2.377 2.46v3.91a.638.638 0 0 1-.637.638H15.908a.638.638 0 0 1-.638-.637V46.45c0-1.356 1.067-2.459 2.378-2.459h.654v-1.998c0-1.342 1.077-2.434 2.402-2.434h1.633v-6.015c-6.276-1.165-11.27-6.019-13.058-12.198h-.888C3.764 21.347 0 17.718 0 13.257V3.636c0-.352.285-.637.637-.637H8.56V.638c0-.353.285-.638.637-.638zm-8.45 45.267H17.648c-.608 0-1.103.531-1.103 1.184v3.274h17.91v-3.274c0-.653-.495-1.184-1.103-1.184zm-3.056-4.432h-9.592c-.622 0-1.127.52-1.127 1.16v1.997h11.846v-1.998c0-.639-.505-1.159-1.127-1.159zm10.869-39.56H9.835v15.077c0 8.003 5.69 14.892 13.234 16.024a.637.637 0 0 1 .543.63v6.554h3.776v-6.554c0-.316.23-.584.543-.63 7.545-1.132 13.234-8.02 13.234-16.024V1.275zm-16.23 4.422c.214-.436.93-.436 1.144 0l2.72 5.532 6.08.887a.638.638 0 0 1 .354 1.086l-4.401 4.307 1.039 6.082a.638.638 0 0 1-.926.67l-5.438-2.869-5.438 2.87a.636.636 0 0 1-.926-.671l1.039-6.082-4.401-4.307a.637.637 0 0 1 .354-1.086l6.08-.887zm.572 1.726l-2.296 4.67a.639.639 0 0 1-.48.35l-5.138.748 3.72 3.64c.15.146.217.357.182.563l-.878 5.137 4.592-2.424a.637.637 0 0 1 .595 0l4.592 2.424-.877-5.137a.637.637 0 0 1 .182-.563l3.72-3.64-5.138-.749a.639.639 0 0 1-.48-.35l-2.296-4.669zM8.56 4.273H1.275v8.985c0 3.757 3.192 6.814 7.116 6.814h.573a17.97 17.97 0 0 1-.385-3.278h-.076c-2.55 0-4.624-2.004-4.624-4.468V7.379c0-.352.285-.638.637-.638H8.56V4.273zm41.172 0H42.44V6.74h4.05c.353 0 .638.286.638.638v4.947c0 2.464-2.074 4.468-4.624 4.468h-.083a17.97 17.97 0 0 1-.385 3.278h.58c3.923 0 7.116-3.057 7.116-6.814V4.273zm-3.879 3.743H42.44v7.503h.064c1.847 0 3.35-1.432 3.35-3.193v-4.31zm-37.293 0H5.154v4.31c0 1.76 1.502 3.193 3.349 3.193h.057V8.016z"/>
</svg>
