<svg xmlns="http://www.w3.org/2000/svg" viewBox="0 0 86 82">
    <g fill="#97D7EE" stroke="#97D7EE">
        <path d="M48 30.1c0 2.8 1.7 5.2 4.2 6.2l13.5 42.4c.2.6.7 1 1.4 1 0 0 0 0 0 0 .6 0 1.2-.4 1.4-1.1l11.7-42.3c2.4-1 4.1-3.4 4.1-6.2 0-2.3-1.2-4.4-3.1-5.7.3-1.2.4-2.4.4-3.6C81.6 12.1 74.5 5 65.8 5 57.1 5 50 12.1 50 20.8c0 1.3.2 2.7.5 4-1.6 1.3-2.5 3.2-2.5 5.3zm19 46.2L54.4 36.8h.4c1.7 0 3.2-.6 4.5-1.7 2.1 1 4.3 1.4 6.6 1.4 2.4 0 4.8-.6 7-1.6 1.3 1.2 2.9 1.9 4.7 1.9h.4L67 76.3zM65.8 7.1c6.4 0 11.8 4.4 13.3 10.3-1.6.5-2.5 1.8-3.2 3-.9 1.4-1.5 2.3-2.7 2.3-1.2 0-1.8-.9-2.7-2.3-.9-1.4-2.1-3.2-4.4-3.2-2.3 0-3.5 1.8-4.4 3.2-.9 1.4-1.5 2.3-2.7 2.3-1.2 0-1.8-.9-2.7-2.3-.8-1.3-1.9-2.9-3.8-3.1 1.6-5.9 7-10.2 13.3-10.2zM52.2 26c.4-.2.6-.7.4-1.1-.4-1.3-.6-2.7-.6-4.1 0-.5 0-1.1.1-1.6 1 .1 1.7.9 2.5 2.3.9 1.4 2.1 3.2 4.4 3.2 2.3 0 3.5-1.8 4.4-3.2.9-1.4 1.5-2.3 2.7-2.3 1.2 0 1.8.9 2.7 2.3.9 1.4 2.1 3.2 4.4 3.2 2.3 0 3.5-1.8 4.4-3.2.7-1.1 1.2-1.8 1.9-2.1.1.5.1 1 .1 1.5 0 1.3-.2 2.5-.5 3.8-.1.5.1 1 .5 1.2 1.7.8 2.7 2.5 2.7 4.3 0 2.6-2.1 4.8-4.8 4.8-1.4 0-2.8-.6-3.7-1.8-.2-.2-.5-.4-.8-.4-.2 0-.3 0-.5.1-2 1.1-4.4 1.7-6.7 1.7-2.2 0-4.3-.5-6.3-1.5-.4-.2-.9-.1-1.2.2-.9 1-2.2 1.6-3.5 1.6-2.6 0-4.8-2.1-4.8-4.8 0-1.7.8-3.2 2.2-4.1zM24.344 75.525V59.097c8.388-1.74 14.779-8.943 15.32-17.705.055-.124.088-.26.088-.403 0-.095-.029-.181-.054-.268.005-.176.027-.35.027-.526V19.869c0-.422-.029-.836-.059-1.25l-.012-.16c-.019-.276-.153-.532-.369-.707-.216-.174-.496-.252-.77-.212-.216.03-.364.057-.52.057-1.719 0-3.2-1.172-3.604-2.85-.073-.303-.282-.555-.566-.681-.285-.126-.612-.112-.885.036-1.019.554-2.076.62-3.154.193-1.069-.423-1.913-1.363-2.201-2.454-.432-1.637.289-2.813.758-3.37.227-.268.295-.637.181-.97-.114-.332-.395-.58-.739-.652-1.708-.36-2.947-1.89-2.947-3.637 0-.441.087-.89.259-1.333.104-.271.087-.572-.049-.828-.135-.256-.374-.441-.656-.507-3.657-.857-7.097-.701-10.52.469C5.575 3.852 0 11.846 0 20.907v19.288c0 9.3 6.612 17.084 15.381 18.902v16.428c0 2.47 2.011 4.48 4.481 4.48 2.47 0 4.482-2.01 4.482-4.48zm-6.963-16.123c.633.063 1.274.097 1.924.097h1.115c.649 0 1.291-.035 1.924-.097v16.123c0 1.368-1.113 2.48-2.481 2.48-1.368 0-2.481-1.112-2.481-2.48V59.402h-.001zm20.343-39.533v20.207c-2.165.37-3.374 1.893-4.456 3.258-1.145 1.444-2.049 2.586-3.914 2.586-1.865 0-2.77-1.142-3.914-2.586-1.242-1.568-2.649-3.345-5.482-3.345-2.831 0-4.238 1.777-5.479 3.345-1.144 1.444-2.047 2.586-3.911 2.586-1.864 0-2.769-1.142-3.912-2.586-1.114-1.405-2.369-2.968-4.655-3.28V20.908c0-8.205 5.031-15.44 12.52-18.001 2.736-.937 5.493-1.144 8.398-.624-.053.31-.08.62-.08.93 0 2.21 1.289 4.194 3.209 5.138-.61 1.227-.758 2.629-.395 4.003.454 1.72 1.726 3.142 3.399 3.803 1.26.502 2.548.554 3.781.16.887 1.896 2.751 3.173 4.887 3.274.003.092.004.185.004.279zM20.42 57.499h-1.115c-8.893 0-16.234-6.744-17.192-15.385 1.261.322 2.042 1.286 2.974 2.462 1.242 1.568 2.648 3.345 5.48 3.345 2.831 0 4.238-1.777 5.479-3.345 1.144-1.444 2.047-2.586 3.911-2.586 1.865 0 2.77 1.142 3.914 2.586 1.242 1.568 2.649 3.345 5.482 3.345s4.24-1.776 5.482-3.344c.88-1.112 1.623-2.038 2.767-2.41C36.621 50.783 29.294 57.5 20.42 57.5z" transform="translate(1 1)"/>
    </g>
</svg>
