<?xml version="1.0" encoding="UTF-8"?>
<svg width="51px" height="50px" viewBox="0 0 51 50" version="1.1" xmlns="http://www.w3.org/2000/svg" xmlns:xlink="http://www.w3.org/1999/xlink">
    <!-- Generator: Sketch 64 (93537) - https://sketch.com -->
    <title>Combined Shape</title>
    <desc>Created with Sketch.</desc>
    <g id="Symbols" stroke="none" stroke-width="1" fill="none" fill-rule="evenodd">
        <g id="pick-and-mix-desktop" transform="translate(-571.000000, -100.000000)" fill="#001832" fill-rule="nonzero">
            <g id="pick-and-mix">
                <g id="intro" transform="translate(295.000000, 100.000000)">
                    <path d="M305.42234,0 C306.156734,0 306.829929,0.244798042 307.380724,0.795593635 L307.380724,0.795593635 L325.250981,18.6046512 C326.352573,19.6450428 326.352573,21.4198286 325.250981,22.5214198 L325.250981,22.5214198 L314.17387,33.5985312 L322.986599,42.2276622 C324.271789,43.5128519 324.332989,45.5936353 323.047799,46.878825 C322.435804,47.5520196 321.579011,47.8580171 320.722218,47.8580171 C319.865424,47.8580171 319.008631,47.5520196 318.396636,46.9400245 L318.396636,46.9400245 L309.522707,38.249694 L298.567995,49.2044064 C298.078399,49.6940024 297.344005,50 296.609611,50 C295.875216,50 295.202022,49.755202 294.651226,49.2044064 L294.651226,49.2044064 L276.842169,31.3953488 C275.740577,30.3549572 275.740577,28.5801714 276.71977,27.4785802 L276.71977,27.4785802 L288.347677,15.8506732 L283.023319,10.6487148 C282.90092,10.5263158 282.839721,10.3427173 282.839721,10.1591187 C282.839721,9.9755202 282.96212,9.85312118 283.084519,9.73072215 C283.268117,9.54712362 284.920504,8.38433293 289.082071,9.79192166 C290.244861,10.1591187 291.468852,10.7099143 292.815241,11.4443084 L292.815241,11.4443084 L303.463956,0.795593635 C303.953552,0.305997552 304.687946,0 305.42234,0 Z M289.326869,16.7074663 L277.698962,28.3353733 C277.086967,28.9473684 277.086967,29.9265606 277.698962,30.5385557 L277.698962,30.5385557 L295.508019,48.3476132 C296.120014,48.9596083 297.099207,48.9596083 297.711202,48.3476132 L297.711202,48.3476132 L308.604715,37.3929009 L305.911936,34.7613219 C305.667138,34.5165239 305.667138,34.1493268 305.911936,33.9045288 L305.911936,33.9045288 L306.401532,33.4149327 L289.326869,16.7074663 Z M310.073503,31.3953488 L307.197126,34.3329253 L319.314629,46.1444308 C320.171422,46.9400245 321.456612,46.878825 322.252205,46.0832313 C323.047799,45.2264382 322.986599,43.9412485 322.191006,43.1456548 L322.191006,43.1456548 L310.073503,31.3953488 Z M306.523931,1.71358629 C305.911936,1.10159119 304.932744,1.10159119 304.320749,1.71358629 L304.320749,1.71358629 L293.978032,12.1175031 C298.506795,14.749082 303.892352,19.0942472 310.012303,25.0917993 C310.257101,25.3365973 310.257101,25.7037944 310.012303,25.9485924 L310.012303,25.9485924 L307.380724,28.6413709 L309.277909,30.4773562 L309.706306,30.0489596 C309.828705,29.9265606 309.951104,29.8653611 310.134702,29.8653611 L310.134702,29.8653611 L310.238007,29.872705 C310.36726,29.8922889 310.46518,29.9510404 310.563099,30.0489596 L310.563099,30.0489596 L313.317077,32.7417381 L324.332989,21.7258262 C324.944984,21.1138311 324.944984,20.1346389 324.332989,19.5226438 L324.332989,19.5226438 Z M308.665914,25.5201958 C293.304837,10.6487148 286.63409,10.0979192 284.614506,10.4651163 L284.614506,10.4651163 L307.197126,32.5581395 L308.359917,31.3341493 L306.034335,29.0697674 C305.789537,28.8249694 305.789537,28.4577723 306.034335,28.2129743 L306.034335,28.2129743 Z M307.013527,8.99632803 C307.809121,8.20073439 309.21671,8.20073439 310.012303,8.99632803 L310.012303,8.99632803 L317.050247,16.0342717 C317.845841,16.8910649 317.845841,18.2374541 317.050247,19.0330477 C316.68305,19.4002448 316.132254,19.6450428 315.581459,19.6450428 C314.969464,19.6450428 314.479868,19.4002448 314.051471,19.0330477 L314.051471,19.0330477 L307.013527,11.995104 C306.217934,11.1383109 306.217934,9.79192166 307.013527,8.99632803 Z M308.482316,9.60832313 C308.237517,9.60832313 308.053919,9.66952264 307.87032,9.85312118 C307.503123,10.2203182 307.503123,10.7711138 307.87032,11.1383109 L307.87032,11.1383109 L314.908264,18.1762546 C315.275461,18.5434517 315.826257,18.5434517 316.193454,18.1762546 C316.560651,17.8090575 316.560651,17.2582619 316.193454,16.8910649 L316.193454,16.8910649 L309.094311,9.85312118 C308.971912,9.73072215 308.727114,9.60832313 308.482316,9.60832313 Z" id="Combined-Shape"></path>
                </g>
            </g>
        </g>
    </g>
</svg>