<svg xmlns="http://www.w3.org/2000/svg" viewBox="0 0 41 33">
    <path fill="#001832" fill-rule="nonzero" d="M5.396.237C5.189.41.33 4.582.33 16.29c0 11.706 4.854 15.983 5.06 16.16a.463.463 0 0 0 .478.075l33.01-13.72a2.296 2.296 0 0 0 1.434-2.13 2.293 2.293 0 0 0-1.4-2.151L5.877.169a.464.464 0 0 0-.48.068zm4.528 2.7l28.62 12.436c.627.272.846.847.843 1.295a1.382 1.382 0 0 1-.863 1.282L9.937 29.832c-.015-.018-.024-.039-.042-.054-.04-.034-4.114-3.672-4.114-13.45 0-9.773 4.07-13.316 4.111-13.35.014-.012.02-.028.032-.04zm22.58 11.312a2.13 2.13 0 0 0-2.127 2.127 2.13 2.13 0 0 0 3.632 1.505 2.13 2.13 0 0 0-1.505-3.632zm-1.202 2.127c0-.662.54-1.202 1.202-1.201.663 0 1.202.539 1.202 1.201 0 .643-.56 1.203-1.202 1.202a1.203 1.203 0 0 1-1.202-1.202zm-2.672 1.837a.459.459 0 0 0-.052.652l.458.538a.463.463 0 1 0 .705-.6l-.458-.538a.463.463 0 0 0-.653-.052zm-5.574-1.568a2.48 2.48 0 0 0-.731 1.767c0 .667.26 1.295.731 1.767a2.48 2.48 0 0 0 1.767.731 2.48 2.48 0 0 0 1.766-.731 2.48 2.48 0 0 0 .732-1.767c0-.667-.26-1.295-.732-1.766a2.483 2.483 0 0 0-1.767-.732c-.667 0-1.294.26-1.766.731zm.655.655c.297-.297.691-.46 1.112-.46.42 0 .815.163 1.112.46.297.297.46.692.46 1.112 0 .84-.732 1.573-1.572 1.572-.42 0-.815-.163-1.112-.46a1.562 1.562 0 0 1-.46-1.112c0-.42.163-.815.46-1.112zm-7.018 2.95a2.112 2.112 0 0 0-.623 1.504c0 .569.221 1.103.623 1.505.402.402.937.623 1.505.623.586 0 1.117-.239 1.503-.624a2.12 2.12 0 0 0 .624-1.504l-.007-.174a2.13 2.13 0 0 0-3.625-1.33zm.303 1.504c0-.642.56-1.201 1.201-1.202.663 0 1.202.54 1.202 1.202a1.204 1.204 0 0 1-2.052.85 1.192 1.192 0 0 1-.351-.85zm9.193-8.932a.462.462 0 1 0 .561.736l.561-.427a.463.463 0 0 0-.561-.736zM12.754 25.326a.464.464 0 0 0 .56.736l.562-.428a.463.463 0 0 0-.561-.736zM5.744 1.184l.044-.044 3.223 1.4C8.02 3.555 4.856 7.493 4.856 16.328c0 8.866 3.185 12.867 4.162 13.886l-3.221 1.339c-.896-.937-4.54-5.358-4.54-15.263 0-9.93 3.63-14.236 4.53-15.15zM20.535 9.45a2.805 2.805 0 0 0-2.801 2.801 2.805 2.805 0 0 0 2.801 2.802c.748 0 1.452-.292 1.981-.821.53-.53.82-1.233.82-1.98a2.805 2.805 0 0 0-2.8-2.802zM9.081 24.722a.46.46 0 0 0-.052.652l.458.538a.463.463 0 1 0 .705-.6l-.458-.538a.463.463 0 0 0-.653-.052zm.014-7.404a3.228 3.228 0 0 0-.952 2.299c0 .868.338 1.684.952 2.298a3.23 3.23 0 0 0 2.299.952c.868 0 1.685-.338 2.299-.952a3.23 3.23 0 0 0 .952-2.298 3.255 3.255 0 0 0-3.251-3.251 3.23 3.23 0 0 0-2.299.952zm10.115-6.393c.34-.34.808-.55 1.326-.55 1.033 0 1.875.842 1.875 1.875 0 .501-.195.972-.55 1.326-.353.355-.824.55-1.325.55a1.878 1.878 0 0 1-1.876-1.876c0-.517.21-.986.55-1.325zm-9.46 7.048a2.31 2.31 0 0 1 1.644-.681 2.328 2.328 0 0 1 2.325 2.325 2.31 2.31 0 0 1-.681 1.644 2.31 2.31 0 0 1-1.644.68 2.308 2.308 0 0 1-1.644-.68 2.31 2.31 0 0 1-.681-1.644c0-.621.242-1.205.681-1.644zm6.256-1.908a.463.463 0 0 0 .56.736l.562-.428a.463.463 0 0 0-.561-.736zm-2.25-8.349a2.502 2.502 0 0 0-2.5 2.499c0 .667.26 1.295.732 1.767a2.48 2.48 0 0 0 1.767.731c.688 0 1.313-.28 1.765-.732a2.49 2.49 0 0 0 .733-1.766c0-.667-.26-1.295-.731-1.767a2.48 2.48 0 0 0-1.767-.732zm-1.112 1.387a1.568 1.568 0 0 1 2.224 0c.296.296.46.691.46 1.111a1.575 1.575 0 0 1-2.685 1.113 1.567 1.567 0 0 1 0-2.223zm-4.995 4.865a.464.464 0 0 0 .561.736l.562-.427a.463.463 0 0 0-.561-.736zm.615-4.28a.458.458 0 0 0-.052.652l.458.538a.463.463 0 1 0 .705-.6l-.458-.538a.463.463 0 0 0-.653-.052zm2.024-4.485a.458.458 0 0 0-.052.653l.457.537a.463.463 0 1 0 .705-.6l-.457-.538a.463.463 0 0 0-.653-.052z"/>
</svg>
