<svg xmlns="http://www.w3.org/2000/svg" viewBox="0 0 46 24">
    <path fill="#EB694A" fill-rule="nonzero" d="M8.824 8.914h8.552v-.656c0-.282.116-.538.302-.724.19-.19.452-.307.742-.307 2.515 0 4.92-1.057 6.75-2.98.058-.061.116-.121.176-.18C27.52 1.89 30.53.648 33.642.648c3.351 0 6.538 1.417 8.744 3.887 2.164 2.422 3.154 5.533 2.79 8.758-.59 5.212-4.887 9.413-10.216 9.988-3.729.402-7.317-.903-9.845-3.583-1.753-1.858-4.146-2.924-6.566-2.924-.667 0-1.173-.494-1.173-1.103v-.583H8.824c-.117 2.113-1.908 3.795-4.091 3.795-2.26 0-4.099-1.8-4.099-4.015a3.99 3.99 0 0 1 1.235-2.867A3.985 3.985 0 0 1 .635 9.135c0-1.093.447-2.084 1.172-2.81A4.127 4.127 0 0 1 4.733 5.12c2.183 0 3.974 1.683 4.091 3.795zm9.5-.656V9.387v6.285c0 .09.077.156.18.156 2.725 0 5.37 1.174 7.301 3.22 2.322 2.463 5.622 3.663 9.053 3.292 4.893-.527 8.836-4.376 9.377-9.153a10.177 10.177 0 0 0-2.555-8.021c-2.027-2.269-4.956-3.57-8.038-3.57-2.94-.001-5.769 1.198-7.788 3.304l-.18.185c-1.995 1.994-4.56 3.089-7.254 3.088-.054 0-.097.04-.097.085zM7.996 9.708a.474.474 0 0 1-.125-.356c.006-.088.011-.152.011-.218 0-1.692-1.413-3.069-3.15-3.07-1.739 0-3.152 1.377-3.152 3.07 0 .976.487 1.903 1.302 2.48a.474.474 0 0 1 0 .773 3.057 3.057 0 0 0-1.302 2.48c0 1.693 1.413 3.07 3.151 3.07 1.737-.001 3.15-1.377 3.152-3.07 0-.058-.006-.118-.01-.178A.519.519 0 0 1 8 14.312c.092-.088.213-.17.345-.17h9.033V9.861H8.343a.472.472 0 0 1-.347-.152z"/>
</svg>
