<svg xmlns="http://www.w3.org/2000/svg" viewBox="0 0 51 40">
    <path fill="#001832" fill-rule="nonzero" stroke="#001832" stroke-width=".5" d="M38.715 1c.437 0 .728.29.728.725v5.802h9.829c.364 0 .728.362.728.725V32.69c0 3.19-2.33 5.801-5.388 6.236-.073.073-.145.073-.291.073H9.591C4.86 39 1 35.156 1 30.443V1.725C1 1.29 1.291 1 1.728 1zm-.801 1.45H2.456v27.993c0 3.916 3.204 7.034 7.135 7.107h30.653c-1.384-1.233-2.33-3.191-2.33-6.31V2.45zm10.63 6.527h-9.101V31.24c0 3.771 1.674 6.092 4.514 6.237 2.548-.145 4.587-2.248 4.587-4.786V8.977zm-15.8 19.58c.437 0 .729.29.729.725 0 .436-.365.726-.801.726H7.48c-.437 0-.728-.29-.728-.726 0-.435.291-.725.728-.725h25.264zm0-6.309c.437 0 .729.29.729.725s-.365.725-.801.725H7.48c-.437 0-.728-.29-.728-.725s.291-.725.728-.725h25.264zm0-6.237c.437 0 .729.29.729.726 0 .435-.365.725-.801.725H7.48c-.437 0-.728-.29-.728-.725s.291-.726.728-.726h25.264zm0-6.309c.437 0 .729.29.729.725 0 .436-.365.726-.801.726H7.48c-.437 0-.728-.29-.728-.726 0-.435.291-.725.728-.725h25.264z"/>
</svg>
