<svg xmlns="http://www.w3.org/2000/svg" viewBox="0 0 73 38">
    <path fill="#001832" fill-rule="nonzero" d="M34.1 13.9c.6 0 1 .4 1 1 0 6.821-3.779 12.673-9.347 15.601H46.76c-5.617-2.945-9.46-8.835-9.46-15.601 0-.6.4-1 1-1h33.1c.6 0 1 .4 1 1 .07 6.82-3.736 12.673-9.327 15.6H68.1c1.7 0 3.1 1.4 3.1 3.1v1.2c0 1.7-1.4 3.1-3.1 3.1H3.6c-1.7 0-3.1-1.4-3.1-3.1v-1.2c0-1.7 1.4-3.1 3.1-3.1h5.86C3.843 27.556 0 21.666 0 14.9c0-.6.4-1 1-1h33.1zm34 18.6H54.9l-.109-.001H17.682l-.082.001-.109-.001L3.6 32.5c-.6 0-1.1.5-1.1 1.1v1.2c0 .6.5 1.1 1.1 1.1h64.5c.6 0 1.1-.5 1.1-1.1v-1.2c0-.6-.5-1.1-1.1-1.1zM33.1 16h-31c.464 7.519 6.357 13.66 13.759 14.501h3.499C26.752 29.663 32.636 23.606 33.1 16zm37.3 0h-31c.464 7.519 6.357 13.66 13.759 14.501h3.499C64.052 29.663 69.936 23.606 70.4 16zM14.7 0c2 0 3.6 1.6 3.6 3.6s-1.6 3.6-3.6 3.6c-.9 0-1.6.7-1.6 1.6 0 .9.7 1.6 1.6 1.6.6 0 1 .4 1 1s-.4 1-1 1c-2 0-3.6-1.6-3.6-3.6s1.6-3.6 3.6-3.6c.9 0 1.6-.7 1.6-1.6 0-.9-.7-1.6-1.6-1.6-.6 0-1-.4-1-1s.4-1 1-1zm6.8 0c2 0 3.6 1.6 3.6 3.6s-1.6 3.6-3.6 3.6c-.9 0-1.6.7-1.6 1.6 0 .9.7 1.6 1.6 1.6.6 0 1 .4 1 1s-.4 1-1 1c-2 0-3.6-1.6-3.6-3.6s1.6-3.6 3.6-3.6c.9 0 1.6-.7 1.6-1.6 0-.9-.7-1.6-1.6-1.6-.6 0-1-.4-1-1s.4-1 1-1z"/>
</svg>
