<?xml version="1.0" encoding="utf-8"?>
<!-- Generator: Adobe Illustrator 23.1.1, SVG Export Plug-In . SVG Version: 6.00 Build 0)  -->
<svg version="1.1" id="Layer_1" xmlns="http://www.w3.org/2000/svg" xmlns:xlink="http://www.w3.org/1999/xlink" x="0px" y="0px"
	 viewBox="0 0 22 22" style="enable-background:new 0 0 22 22;" xml:space="preserve">
<g id="Symbols_1_">
	<g id="recept-card---M_1_" transform="translate(-20.000000, -383.000000)">
		<g>
			<g id="info_1_" transform="translate(20.000000, 259.000000)">
				<g id="icons_1_" transform="translate(0.000000, 124.000000)">
					<path fill="#c6191b" id="time_1_" d="M11,0c6.1,0,11,4.9,11,11s-4.9,11-11,11S0,17.1,0,11C0,4.9,4.9,0,11,0z M11,0.6C5.3,0.6,0.6,5.3,0.6,11
						S5.3,21.4,11,21.4c5.8,0,10.4-4.7,10.4-10.4S16.7,0.6,11,0.6z M10.9,18.9c0.2,0,0.3,0.1,0.3,0.3l0,0V20c0,0.1-0.1,0.3-0.3,0.3
						l0,0l-0.1,0c-0.1,0-0.2-0.2-0.2-0.3l0,0l0-0.9C10.6,19,10.7,18.9,10.9,18.9z M6.7,18c0.1-0.1,0.2-0.2,0.4-0.1
						c0.1,0.1,0.2,0.3,0.1,0.4l0,0l-0.4,0.8c-0.1,0.1-0.1,0.1-0.3,0.1c-0.1,0-0.1,0-0.1,0c-0.1-0.1-0.2-0.3-0.1-0.4l0,0L6.7,18z
						 M14.9,17.9c0.1-0.1,0.3-0.1,0.4,0.1l0,0l0.4,0.8c0.1,0.1,0.1,0.3-0.1,0.4c0,0-0.1,0-0.1,0c-0.1,0-0.2-0.1-0.3-0.1l0,0
						l-0.4-0.7C14.7,18.1,14.7,18,14.9,17.9z M3.7,15.1C3.9,15,4.1,15,4.2,15.2c0.1,0.1,0,0.3-0.1,0.4l0,0l-0.7,0.5
						c0,0.1-0.1,0.1-0.1,0.1c-0.1,0-0.2-0.1-0.2-0.1c-0.1-0.1-0.1-0.3,0.1-0.4l0,0L3.7,15.1z M17.7,14.8c0.1-0.1,0.3-0.2,0.4-0.1
						l0,0l0.8,0.4c0.1,0.1,0.2,0.2,0.1,0.4c-0.1,0.1-0.1,0.1-0.3,0.1c-0.1,0-0.1,0-0.1,0l0,0l-0.8-0.4C17.7,15.2,17.6,15,17.7,14.8z
						 M11,4.6c0.2,0,0.3,0.1,0.3,0.3l0,0v5.4c0.1,0.1,0.2,0.2,0.3,0.3l0,0h6.1c0.2,0,0.3,0.1,0.3,0.3c0,0.2-0.1,0.3-0.3,0.3l0,0
						h-6.1c-0.1,0.2-0.3,0.4-0.6,0.4c-0.4,0-0.7-0.3-0.7-0.7c0-0.3,0.1-0.5,0.4-0.6l0,0V4.9C10.7,4.8,10.8,4.6,11,4.6z M2.7,10.8
						c0.2,0,0.3,0.1,0.3,0.3c0,0.1-0.1,0.3-0.3,0.3l0,0l-0.9,0l0,0l-0.1,0c-0.1,0-0.2-0.2-0.2-0.3c0-0.1,0.1-0.3,0.3-0.3l0,0
						L2.7,10.8z M19.9,10.7L19.9,10.7c0.2,0,0.3,0.2,0.3,0.3c0,0.1-0.1,0.3-0.3,0.3l0,0h-0.9l0,0l-0.1,0c-0.1,0-0.2-0.2-0.2-0.3
						c0-0.2,0.1-0.3,0.3-0.3l0,0H19.9L19.9,10.7z M2.6,6.6C2.7,6.4,2.8,6.4,3,6.5l0,0l0.8,0.4C4,7,4,7.1,3.9,7.3
						C3.9,7.4,3.8,7.4,3.7,7.4c-0.1,0-0.1,0-0.1,0l0,0L2.7,7C2.6,6.9,2.5,6.7,2.6,6.6z M18.5,6.3c0.1-0.1,0.3-0.1,0.4,0.1
						s0.1,0.3-0.1,0.4l0,0l-0.7,0.4c0,0-0.1,0-0.1,0c-0.1,0-0.2-0.1-0.3-0.1c-0.1-0.1-0.1-0.3,0.1-0.4l0,0L18.5,6.3z M5.8,3.2
						C6,3.1,6.2,3.1,6.3,3.3l0,0L6.7,4c0.1,0.1,0.1,0.3-0.1,0.4c0,0-0.1,0.1-0.1,0.1c-0.1,0-0.2-0.1-0.2-0.1l0,0L5.8,3.6
						C5.7,3.4,5.7,3.3,5.8,3.2z M15.1,2.9c0.1-0.1,0.3-0.2,0.4-0.1c0.1,0.1,0.2,0.3,0.1,0.4l0,0L15.2,4c-0.1,0.1-0.1,0.1-0.3,0.1
						c-0.1,0-0.1,0-0.1,0c-0.1-0.1-0.2-0.2-0.1-0.4l0,0L15.1,2.9z M11,1.6c0.2,0,0.3,0.1,0.3,0.3l0,0v0.9c0,0.2-0.1,0.3-0.3,0.3
						c-0.1,0-0.3-0.1-0.3-0.3l0,0V1.9C10.7,1.7,10.8,1.6,11,1.6z"/>
				</g>
			</g>
		</g>
	</g>
</g>
</svg>
