<?xml version="1.0" encoding="utf-8"?>
<!-- Generator: Adobe Illustrator 23.1.1, SVG Export Plug-In . SVG Version: 6.00 Build 0)  -->
<svg version="1.1" id="Layer_1" xmlns="http://www.w3.org/2000/svg" xmlns:xlink="http://www.w3.org/1999/xlink" x="0px" y="0px"
	 viewBox="0 0 18.5 21.8" style="enable-background:new 0 0 18.5 21.8;" xml:space="preserve">
<g>
	<g>
		<path fill="#ffffff" d="M9.3,12.6C5.8,12.6,3,9.7,3,6.3C3,2.8,5.8,0,9.3,0s6.3,2.8,6.3,6.3S12.7,12.6,9.3,12.6z M9.3,0.5c-3.2,0-5.7,2.6-5.7,5.7
			c0,3.2,2.6,5.7,5.7,5.7S15,9.4,15,6.3C15,3.1,12.4,0.5,9.3,0.5z"/>
	</g>
	<g>
		<path fill="#ffffff" d="M9.3,21.8c-5.3,0-9.3-4-9.3-6.6c0-1.6,1.3-3,3.7-3.9l0.2-0.1L4,11.3c1.4,1.5,3.3,2.3,5.3,2.3s3.9-0.8,5.3-2.3l0.1-0.1
			l0.2,0.1c2.3,0.9,3.7,2.4,3.7,3.9C18.5,17.8,14.6,21.8,9.3,21.8z M3.7,11.8c-2,0.8-3.2,2.1-3.2,3.4c0,2.4,3.9,6.1,8.7,6.1
			s8.7-3.7,8.7-6.1c0-1.3-1.2-2.5-3.2-3.4c-1.5,1.5-3.5,2.3-5.6,2.3S5.2,13.3,3.7,11.8z"/>
	</g>
</g>
</svg>
