<?xml version="1.0" encoding="utf-8"?>
<!-- Generator: Adobe Illustrator 23.1.1, SVG Export Plug-In . SVG Version: 6.00 Build 0)  -->
<svg version="1.1" id="Layer_1" xmlns="http://www.w3.org/2000/svg" xmlns:xlink="http://www.w3.org/1999/xlink" x="0px" y="0px"
	viewBox="0 0 21.8 20.6" style="enable-background:new 0 0 21.8 20.6;" xml:space="preserve">
<g>
	<path fill="#ffffff" d="M3.7,13.3v6.1c0,0.7,0.5,1.2,1.2,1.2h11.9c0.7,0,1.2-0.5,1.2-1.2v-7.3c2.2-0.4,3.7-2.2,3.7-4.4c0-2-1.4-3.8-3.4-4.3
		c-0.7-0.2-1.3-0.2-2-0.1c-0.8-2-2.8-3.3-4.9-3.3c-2,0-3.9,1.2-4.8,3C6,2.8,5.3,2.8,4.6,2.9C2.2,3.2,0.3,5.2,0,7.6
		C-0.2,10.2,1.3,12.5,3.7,13.3z M0.6,7.7c0.2-2.1,1.9-3.9,4-4.2c0.2,0,0.5-0.1,0.7-0.1c0.5,0,1.4,0.2,1.4,0.2S8.3,4,9.1,5.4
		c0.1,0.1,0.1,0.1,0.3,0.1c0.1,0,0.1,0,0.1,0c0.1-0.1,0.2-0.3,0.1-0.4c-0.7-1.3-1.8-1.8-2.4-2c0.8-1.6,2.4-2.6,4.2-2.6
		c2,0,3.8,1.3,4.5,3.2C16,3.9,16.2,4,16.3,4c0.7-0.2,1.3-0.2,2,0c1.7,0.5,2.9,2,2.9,3.7c0,2-1.5,3.7-3.5,3.9c-0.1,0-0.3,0.1-0.3,0.3
		v7.5c0,0.4-0.3,0.6-0.6,0.6h-12c-0.4,0-0.6-0.3-0.6-0.6v-6.3c0-0.1-0.1-0.2-0.2-0.3C1.8,12.2,0.4,10,0.6,7.7z"/>
	<path fill="#ffffff" d="M6.3,18.9c0.2,0,0.3-0.1,0.3-0.3v-4.3c0-0.2-0.1-0.3-0.3-0.3c-0.2,0-0.3,0.1-0.3,0.3v4.3C6,18.8,6.2,18.9,6.3,18.9z"/>
	<path fill="#ffffff" d="M8.2,18.9c0.2,0,0.3-0.1,0.3-0.3v-4.3c0-0.2-0.1-0.3-0.3-0.3c-0.2,0-0.3,0.1-0.3,0.3v4.3C7.9,18.8,8,18.9,8.2,18.9z"/>
	<path fill="#ffffff"  d="M10,18.9c0.2,0,0.3-0.1,0.3-0.3v-4.3c0-0.2-0.1-0.3-0.3-0.3c-0.2,0-0.3,0.1-0.3,0.3v4.3C9.7,18.8,9.8,18.9,10,18.9z"/>
	<path fill="#ffffff" d="M11.9,18.9c0.2,0,0.3-0.1,0.3-0.3v-4.3c0-0.2-0.1-0.3-0.3-0.3s-0.3,0.1-0.3,0.3v4.3C11.6,18.8,11.7,18.9,11.9,18.9z"/>
	<path fill="#ffffff" d="M13.7,18.9c0.2,0,0.3-0.1,0.3-0.3v-4.3c0-0.2-0.1-0.3-0.3-0.3s-0.3,0.1-0.3,0.3v4.3C13.4,18.8,13.5,18.9,13.7,18.9z"/>
	<path fill="#ffffff" d="M15.5,18.9c0.2,0,0.3-0.1,0.3-0.3v-4.3c0-0.2-0.1-0.3-0.3-0.3c-0.2,0-0.3,0.1-0.3,0.3v4.3C15.3,18.8,15.4,18.9,15.5,18.9z"
		/>
</g>
</svg>
