<svg xmlns="http://www.w3.org/2000/svg" viewBox="0 0 28 41">
    <path fill="#C6191B" fill-rule="nonzero" stroke="#C6191B" stroke-width=".5" d="M8.405 1c.901 0 1.635.75 1.635 1.674V3.6h.615c2.414 0 4.378 2.01 4.378 4.48 0 1.998-1.286 3.694-3.055 4.269v1.281a1.522 1.522 0 0 1 1.217 1.501c0 .845-.671 1.531-1.496 1.531h-.066c.103.321.4 1.052 1.249 2.541 1.624 2.85 1.605 6.674-.054 11.68a1.673 1.673 0 0 1 .649 2.473c.453.303.755.825.755 1.42v4.737c0 .27-.214.487-.477.487H2.278a.482.482 0 0 1-.477-.487v-4.737c0-.595.302-1.117.755-1.42a1.673 1.673 0 0 1 .65-2.473c-1.66-5.006-1.68-8.83-.055-11.68.94-1.648 1.096-2.332 1.12-2.547-.795-.034-1.433-.702-1.433-1.524 0-.746.526-1.366 1.217-1.501v-1.282C2.285 11.774 1 10.08 1 8.08 1 5.61 2.964 3.602 5.377 3.602h.614v-.927C5.99 1.751 6.725 1 7.627 1zm12.827 8.866c.813 0 1.474.677 1.474 1.508v.615h.462C25.28 11.99 27 13.748 27 15.91a3.94 3.94 0 0 1-1.937 3.405c.22.246.356.57.356.929a1.37 1.37 0 0 1-1.293 1.378c.123.276.394.794.998 1.71 1.417 2.145 1.416 5.005.004 8.731.47.25.797.746.797 1.325 0 .3-.089.578-.238.813.376.278.624.727.624 1.237v4.074c0 .27-.214.488-.477.488h-9.873a.482.482 0 0 1-.476-.488v-4.074c0-.51.247-.96.624-1.237a1.51 1.51 0 0 1-.238-.813c0-.579.326-1.076.797-1.325-1.412-3.726-1.413-6.586.003-8.732.665-1.007.858-1.506.915-1.718a1.37 1.37 0 0 1-1.21-1.37c0-.357.138-.682.357-.928a3.938 3.938 0 0 1-1.938-3.405c0-2.162 1.719-3.92 3.832-3.92h.462v-.616c0-.831.661-1.508 1.474-1.508zm-8.659 24.188H3.46a.715.715 0 0 0-.705.722v4.249h10.524v-4.25a.715.715 0 0 0-.706-.721zm12.244.83h-7.84a.547.547 0 0 0-.54.554v3.587h8.92v-3.587a.547.547 0 0 0-.54-.553zm-.356-2.018h-7.128a.516.516 0 0 0-.51.522c0 .287.229.521.51.521h7.128c.281 0 .51-.234.51-.521a.516.516 0 0 0-.51-.522zM12.16 31.708H3.874c-.37 0-.67.307-.67.686 0 .377.3.685.67.685h8.286c.37 0 .67-.308.67-.685 0-.379-.3-.686-.67-.686zm10.95-10.08h-4.555c-.055.41-.325 1.084-1.094 2.249-1.25 1.894-1.196 4.517.162 8.014h6.549c1.359-3.497 1.413-6.12.163-8.014-.845-1.28-1.134-1.915-1.225-2.249zm-12.458-4.965h-5.43c-.033.617-.45 1.631-1.248 3.032-1.494 2.622-1.433 6.233.186 11.038h7.714c1.618-4.805 1.68-8.416.185-11.038-.597-1.049-1.274-2.345-1.407-3.032zm13.413 3.17H17.73c-.22 0-.4.184-.4.41 0 .226.18.41.4.41h6.336c.221 0 .4-.183.4-.41 0-.226-.179-.41-.4-.41zm-.897-6.869h-4.541c-1.588 0-2.88 1.322-2.88 2.946 0 1.625 1.292 2.947 2.88 2.947h4.54c1.588 0 2.88-1.322 2.88-2.947 0-1.624-1.291-2.946-2.88-2.946zM11.7 14.577H4.334a.55.55 0 0 0-.543.555.55.55 0 0 0 .543.556H11.7c.299 0 .542-.25.542-.556a.55.55 0 0 0-.542-.555zm-.674-2.037c-.122.01-.245.02-.37.02H5.378c-.125 0-.248-.009-.37-.02v1.062h6.018zm10.206-1.699h-.669a.528.528 0 0 0-.521.533v.615h1.711v-.615a.528.528 0 0 0-.521-.533zM10.656 4.576H5.377c-1.888 0-3.424 1.572-3.424 3.504s1.536 3.504 3.424 3.504h5.279c1.888 0 3.425-1.572 3.425-3.504s-1.537-3.504-3.425-3.504zm-2.25-2.6h-.778a.691.691 0 0 0-.683.699V3.6H9.09v-.926c0-.386-.306-.7-.683-.7z"/>
</svg>
