<?xml version="1.0" encoding="UTF-8"?>
<svg viewBox="0 0 45 33" version="1.1" xmlns="http://www.w3.org/2000/svg" xmlns:xlink="http://www.w3.org/1999/xlink">
    <!-- Generator: Sketch 64 (93537) - https://sketch.com -->
    <title>Shape</title>
    <desc>Created with Sketch.</desc>
    <g id="LEDO_sladoled_section" stroke="none" stroke-width="1" fill="none" fill-rule="evenodd">
        <g transform="translate(-772.000000, -547.000000)" fill="#DA1859" fill-rule="nonzero" id="okus-03">
            <g transform="translate(43.000000, 547.000000)">
                <g id="overtitle" transform="translate(584.000000, 0.000000)">
                    <path d="M182.009423,0.933825598 C179.27096,-0.497754129 176.391999,-0.279685567 173.684036,1.56279187 C167.596619,5.7081137 170.312082,12.1850529 172.494552,17.3894206 C173.433039,19.6281569 174.319527,21.7427153 174.357527,23.2954442 C174.402526,25.1328737 173.200043,27.4276415 171.365068,29.0061147 C169.450594,30.6527342 167.051126,31.4028497 164.524661,31.1711519 C157.502256,30.2635424 151.454839,26.6245233 148.859874,21.5448382 C149.722362,21.1940103 150.62185,21.1687709 151.268341,21.5084935 C151.659336,21.7129328 152.139829,21.5614963 152.342827,21.1672566 C152.546324,20.7735217 152.394826,20.2879153 152.004831,20.0824664 C150.720849,19.40605 148.992872,19.5408285 147.494393,20.4302656 C145.912414,21.3696767 144.934427,22.9602647 145.003426,24.4816968 C145.022926,24.912786 145.375421,25.2489751 145.798416,25.2489751 C145.810415,25.2489751 145.822915,25.2484703 145.835415,25.2479655 C146.274909,25.2282787 146.614904,24.8517066 146.594905,24.4085025 C146.564405,23.7421819 146.9204,23.0137723 147.521392,22.4216556 C150.243355,27.6073462 156.205774,31.3912396 163.189179,32.5931406 C163.222178,32.6042459 163.256678,32.6128273 163.292177,32.6198944 C163.666672,32.69006 164.039167,32.7425579 164.409662,32.775874 C165.573646,32.9232722 166.76113,33 167.963114,33 C176.974991,33 184.988382,28.8743649 188.377836,22.489802 C189.498321,20.379282 190.043313,18.2283789 189.997314,16.0976673 C189.858816,9.76055448 186.424862,3.24171788 182.009423,0.933825598 Z M186.973355,21.729086 C185.671873,24.1808429 183.605901,26.2646092 181.033936,27.8663026 C185.87837,21.5342377 183.500402,14.3470613 181.149434,10.9846662 C180.896438,10.6222282 180.400445,10.5359094 180.040949,10.7913323 C179.681454,11.0467552 179.594955,11.54801 179.847452,11.9109528 C180.138448,12.3299271 186.840857,22.2343791 176.624996,29.9571359 C174.87852,30.5654058 173.010545,30.9980095 171.057572,31.2180972 C171.523065,30.9268343 171.971059,30.5972075 172.398553,30.2292168 C174.613023,28.3241456 176.007504,25.5866785 175.951005,23.2550611 C175.905506,21.3969353 174.961019,19.1460841 173.962032,16.7624735 C171.805062,11.6186804 169.575092,6.30023042 174.575524,2.89593787 C175.837007,2.03678812 177.107989,1.60670845 178.376472,1.60670845 C179.346459,1.60670845 180.315446,1.85809305 181.277933,2.36136702 C185.15038,4.38556826 188.280837,10.4339421 188.404836,16.1314881 C188.444335,17.9825469 187.962342,19.8654074 186.973355,21.729086 Z" id="Shape"></path>
                </g>
            </g>
        </g>
    </g>
</svg>