<svg xmlns="http://www.w3.org/2000/svg"  viewBox="0 0 51 50">
    <path fill="#001832" fill-rule="nonzero" d="M39.37.192a.623.623 0 0 1 .9 0l10.537 10.422a.616.616 0 0 1 0 .895l-10.922 10.87a6.538 6.538 0 0 1-4.626 1.918 6.656 6.656 0 0 1-4.37-1.663l-3.405 3.709 3.277 3.005.45-.448a.623.623 0 0 1 .9 0l14.777 14.578c.707.704 1.092 1.663 1.092 2.686s-.385 1.982-1.092 2.685c-.707.703-1.67 1.087-2.699 1.087-1.028 0-1.991-.384-2.698-1.087l-14.65-14.578a.58.58 0 0 1-.192-.447.58.58 0 0 1 .193-.448l.45-.448-2.892-3.133-2.955 3.197.45.448a.616.616 0 0 1 0 .895L7.245 48.913C6.476 49.616 5.512 50 4.548 50s-1.927-.32-2.698-1.087c-1.478-1.47-1.478-3.9 0-5.37l14.584-14.515a.623.623 0 0 1 .9 0l.45.448 3.34-3.07-3.533-3.836c-1.606 1.087-3.47 1.599-5.333 1.599a9.716 9.716 0 0 1-6.81-2.814C1.913 17.84-2.328 7.737 1.527 3.9c3.855-3.9 13.943.32 17.54 3.9 3.342 3.261 3.727 8.376 1.221 12.085l4.048 3.644 3.855-3.516c-2.313-2.558-2.184-6.522.257-8.952zM16.948 30.307L2.748 44.437c-.964 1.023-.964 2.622 0 3.58 1.028.96 2.634.96 3.598 0l14.2-14.13-3.599-3.58zm14.714 0l-3.534 3.517 14.135 14.194c.964.959 2.634.959 3.598 0 .514-.512.771-1.087.771-1.79 0-.704-.321-1.343-.771-1.79l-14.2-14.131zM4.366 45.184a.903.903 0 0 1 1.272 0 .892.892 0 0 1 0 1.266.903.903 0 0 1-1.272 0 .892.892 0 0 1 0-1.266zm38.676-.05a.903.903 0 0 1 1.272 0 .892.892 0 0 1 0 1.267.903.903 0 0 1-1.272 0 .892.892 0 0 1 0-1.266zM22.087 27.303l-3.276 3.005 1.734 1.726 2.892-3.26-1.35-1.471zm-2.441-6.33l-.338.336-.224.223-.21.208-.128.128 3.92 4.22 2.184 2.366 3.277 3.58 1.735-1.726-3.663-3.325-2.184-2.046-4.37-3.964zm9.38 0L25.3 24.425l1.22 1.087 3.342-3.709-.836-.831zM39.82 1.535L29.412 12.02a5.23 5.23 0 0 0 0 7.417l2.12 2.11a5.292 5.292 0 0 0 7.453 0l10.473-10.422-9.638-9.59zM6.025 3.58c-1.414 0-2.699.32-3.534 1.15-3.212 3.133.707 12.468 3.92 15.665 3.148 3.133 8.223 3.261 11.5.32l.643-.575c2.89-3.261 2.827-8.312-.322-11.445C15.855 6.33 10.137 3.58 6.025 3.58zm4.958 15.03a.903.903 0 0 1 1.272 0 .892.892 0 0 1 0 1.267.903.903 0 0 1-1.272 0 .892.892 0 0 1 0-1.266zm32.628-7.87a.623.623 0 0 1 .9 0 .616.616 0 0 1 0 .896l-7.839 7.8a.696.696 0 0 1-.45.192.696.696 0 0 1-.45-.192.616.616 0 0 1 0-.895zm-28.71 6.97a.903.903 0 0 1 1.272 0 .892.892 0 0 1 0 1.267.903.903 0 0 1-1.272 0 .892.892 0 0 1 0-1.266zm-7.575-1.609a.903.903 0 0 1 1.272 0 .892.892 0 0 1 0 1.266.903.903 0 0 1-1.272 0 .892.892 0 0 1 0-1.266zm34.1-7.534a.623.623 0 0 1 .9 0 .616.616 0 0 1 0 .895l-7.838 7.8a.696.696 0 0 1-.45.192.696.696 0 0 1-.45-.192.616.616 0 0 1 0-.895zm-29.548 6.145a.903.903 0 0 1 1.272 0 .892.892 0 0 1 0 1.266.903.903 0 0 1-1.272 0 .892.892 0 0 1 0-1.266zm27.3-8.32a.701.701 0 0 1 .964 0 .616.616 0 0 1 0 .896l-7.839 7.8a.696.696 0 0 1-.45.192.696.696 0 0 1-.45-.191.616.616 0 0 1 0-.896zM15.986 12.91a.903.903 0 0 1 1.272 0 .892.892 0 0 1 0 1.266.903.903 0 0 1-1.272 0 .892.892 0 0 1 0-1.266zm-10.798-.905a.903.903 0 0 1 1.272 0 .892.892 0 0 1 0 1.266.903.903 0 0 1-1.272 0 .892.892 0 0 1 0-1.266zm3.746-.259a.903.903 0 0 1 1.272 0 .892.892 0 0 1 0 1.266.903.903 0 0 1-1.272 0 .892.892 0 0 1 0-1.266zm4.335-2.154a.903.903 0 0 1 1.272 0 .892.892 0 0 1 0 1.266.903.903 0 0 1-1.272 0 .892.892 0 0 1 0-1.266zm-4.62-2.21a.903.903 0 0 1 1.272 0 .892.892 0 0 1 0 1.267.903.903 0 0 1-1.272 0 .892.892 0 0 1 0-1.266zm-4.378-.485a.903.903 0 0 1 1.272 0 .892.892 0 0 1 0 1.266.903.903 0 0 1-1.272 0 .892.892 0 0 1 0-1.266z"/>
</svg>
